<svg width="337" height="250" viewBox="0 0 337 250" fill="none" xmlns="http://www.w3.org/2000/svg">
<rect width="337" height="250" fill="black"/>
<path d="M97.8013 40.641C97.8013 40.641 135.883 69.5672 193.778 15.4805C245.194 -32.5525 287.176 43.2328 287.47 79.5251C287.851 126.538 236.054 164.155 261.191 195.034C286.328 225.912 211.341 276.903 170.927 232.774C120.653 177.879 107.033 222.481 78.3773 222.481C57.8106 222.481 15.5854 171.331 44.0996 133.277C68.094 101.254 55.0079 90.6268 48.6708 79.5251C39.5294 63.514 61.2386 20.0554 97.8013 40.641Z" fill="#FFDEDE"/>
<path d="M250.688 104.563C252.735 105.324 254.972 105.375 257.101 104.886C266.018 102.838 296.678 97.4132 291.35 121.195C290.19 125.913 272.233 152.337 297.806 161.983C299.68 162.698 301.662 163.089 303.667 163.138C311.541 163.3 327.144 161.44 333.674 154.786C341.562 146.748 332.944 150.56 332.944 150.56C332.944 150.56 302.954 163.66 292.361 149.762C291.182 148.215 290.431 145.969 290.216 144.036C289.843 140.684 291.331 136.254 293.284 132.398C295.928 127.178 308.622 103.7 281.062 96.861C274.713 95.3477 265.492 93.9883 253.603 98.9988C246.667 101.921 248.204 103.639 250.688 104.563Z" fill="#F9BDBD"/>
<path d="M256.825 95.7985L248.843 98.7888C246.087 99.821 244.69 102.894 245.721 105.652L246.116 106.71C247.148 109.468 250.218 110.867 252.973 109.835L260.955 106.845C263.711 105.812 265.109 102.74 264.077 99.9816L263.682 98.9234C262.65 96.1653 259.581 94.7662 256.825 95.7985Z" fill="#E5440E"/>
<path d="M207.828 104.451L181.502 114.313C180.125 114.829 179.426 116.365 179.941 117.744L180.045 118.022C180.561 119.401 182.096 120.1 183.473 119.584L209.799 109.722C211.177 109.206 211.876 107.67 211.36 106.291L211.256 106.014C210.741 104.634 209.206 103.935 207.828 104.451Z" fill="#FFA1A1"/>
<path d="M215.174 124.1L188.848 133.962C187.47 134.478 186.772 136.015 187.287 137.394L187.391 137.671C187.907 139.05 189.441 139.75 190.819 139.233L217.145 129.372C218.523 128.855 219.221 127.319 218.706 125.94L218.602 125.663C218.086 124.284 216.552 123.584 215.174 124.1Z" fill="#FFA1A1"/>
<path d="M239.48 91.0416L218.144 99.0344C215.388 100.067 213.99 103.139 215.022 105.897L222.306 125.379C223.337 128.137 226.407 129.536 229.163 128.504L250.499 120.511C253.255 119.479 254.652 116.406 253.621 113.648L246.337 94.1665C245.305 91.4085 242.235 90.0094 239.48 91.0416Z" fill="#F96558"/>
<path d="M220.347 96.1527L199.011 104.145C196.255 105.178 194.858 108.25 195.889 111.008L204.58 134.251C205.611 137.009 208.681 138.408 211.436 137.376L232.772 129.383C235.528 128.351 236.926 125.278 235.894 122.52L227.204 99.2776C226.172 96.5195 223.103 95.1204 220.347 96.1527Z" fill="#FF7169"/>
<path d="M223.687 91.4357L223.52 91.4984C221.683 92.1865 220.751 94.235 221.438 96.0737L233.613 128.634C234.301 130.473 236.347 131.406 238.184 130.717L238.351 130.655C240.188 129.967 241.12 127.918 240.433 126.079L228.258 93.5189C227.57 91.6802 225.524 90.7475 223.687 91.4357Z" fill="#F24720"/>
<path d="M6.12737 112.254C6.12737 112.254 48.9779 100.2 42.7567 127.97C41.6763 132.364 26.1244 154.988 44.6491 165.851C48.6268 168.184 53.2172 169.217 57.8268 169.193C66.0918 169.15 79.1942 167.557 85.0803 161.561C92.969 153.523 84.3508 157.334 84.3508 157.334C84.3508 157.334 59.7411 167.467 47.0803 159.39C42.7572 156.632 40.7977 151.292 41.9716 146.297C42.5717 143.816 43.4854 141.422 44.6907 139.172C47.4442 134.01 60.0283 110.475 32.4685 103.635C26.1198 102.122 16.8988 100.763 5.00917 105.773C-6.88043 110.784 6.12737 112.254 6.12737 112.254Z" fill="#F9BDBD"/>
<path d="M90.8428 151.12L82.8604 154.111C80.1049 155.143 78.7071 158.216 79.7384 160.974L80.1341 162.032C81.1654 164.79 84.2352 166.189 86.9907 165.157L94.9731 162.167C97.7286 161.134 99.1263 158.062 98.095 155.304L97.6994 154.245C96.6681 151.487 93.5983 150.088 90.8428 151.12Z" fill="#E5440E"/>
<path d="M104.329 137.975L92.4991 142.407C89.7435 143.439 88.3458 146.512 89.3771 149.27L95.0816 164.526C96.1129 167.284 99.1827 168.683 101.938 167.651L113.768 163.219C116.524 162.187 117.922 159.114 116.89 156.356L111.186 141.1C110.155 138.342 107.085 136.943 104.329 137.975Z" fill="#F96558"/>
<path d="M124.024 126.229L106.382 132.838C103.626 133.87 102.229 136.943 103.26 139.701L111.951 162.944C112.982 165.702 116.052 167.101 118.807 166.069L136.45 159.46C139.205 158.427 140.603 155.355 139.572 152.597L130.881 129.354C129.849 126.596 126.78 125.197 124.024 126.229Z" fill="#FF7069"/>
<path d="M127.761 121.416L127.594 121.478C125.757 122.166 124.825 124.215 125.512 126.054L137.687 158.614C138.375 160.453 140.421 161.385 142.258 160.697L142.426 160.635C144.263 159.946 145.195 157.898 144.507 156.059L132.332 123.499C131.645 121.66 129.598 120.727 127.761 121.416Z" fill="#F24620"/>
<path d="M172.811 100.672C172.176 100.601 171.593 100.287 171.184 99.7945C170.776 99.3022 170.574 98.6705 170.622 98.0325L171.938 73.9663C172.017 72.5287 173.23 71.4365 174.606 71.5636L176.524 71.7413C177.9 71.8684 178.886 73.1632 178.693 74.5907L175.459 98.4791C175.384 99.1155 175.067 99.6985 174.574 100.107C174.081 100.515 173.45 100.718 172.811 100.672V100.672Z" fill="#F96941"/>
<path d="M161.445 102.747C161.248 102.805 161.041 102.824 160.836 102.802C160.631 102.78 160.433 102.718 160.252 102.619C160.071 102.52 159.911 102.386 159.782 102.226C159.653 102.065 159.557 101.881 159.499 101.683L154.798 86.7128C154.661 86.2871 154.699 85.8244 154.902 85.4264C155.106 85.0283 155.459 84.7274 155.884 84.5897L157.101 84.2221C157.31 84.1611 157.529 84.1441 157.745 84.1722C157.961 84.2002 158.168 84.2727 158.355 84.3852C158.541 84.4976 158.702 84.6474 158.827 84.8252C158.953 85.0031 159.04 85.205 159.084 85.4183L162.568 100.756C162.665 101.169 162.603 101.603 162.395 101.971C162.187 102.34 161.848 102.617 161.445 102.747V102.747Z" fill="#F96941"/>
<path d="M155.102 111.38C154.26 112.425 152.566 112.412 151.262 111.352L128.112 92.5251C126.729 91.4005 126.321 89.5391 127.214 88.4317L128.46 86.8875C129.353 85.7797 131.189 85.8705 132.497 87.0873L154.402 107.458C155.636 108.606 155.945 110.335 155.102 111.38Z" fill="#F96941"/>
<path d="M165.801 160.007C166.398 160.238 166.881 160.691 167.15 161.271C167.42 161.852 167.453 162.514 167.244 163.119L159.831 186.05C159.388 187.42 157.937 188.165 156.639 187.691L154.829 187.029C153.531 186.554 152.908 185.05 153.459 183.72L162.681 161.451C162.916 160.854 163.371 160.371 163.952 160.102C164.533 159.833 165.196 159.799 165.801 160.007V160.007Z" fill="#F96941"/>
<path d="M177.321 160.907C177.526 160.901 177.731 160.936 177.924 161.01C178.116 161.083 178.292 161.194 178.442 161.336C178.591 161.477 178.712 161.647 178.796 161.835C178.88 162.024 178.926 162.227 178.932 162.433L179.657 178.109C179.68 178.555 179.526 178.993 179.227 179.326C178.929 179.658 178.511 179.859 178.065 179.884L176.794 179.928C176.576 179.933 176.36 179.894 176.159 179.812C175.957 179.729 175.775 179.606 175.624 179.45C175.472 179.293 175.355 179.107 175.279 178.903C175.203 178.699 175.17 178.482 175.182 178.264L175.728 162.544C175.739 162.121 175.909 161.717 176.204 161.414C176.5 161.11 176.898 160.929 177.321 160.907V160.907Z" fill="#F96941"/>
<path d="M185.655 154.181C186.737 153.387 188.371 153.832 189.361 155.19L206.94 179.31C207.99 180.751 207.91 182.654 206.763 183.497L205.165 184.671C204.018 185.514 202.267 184.957 201.312 183.446L185.33 158.151C184.432 156.727 184.575 154.976 185.655 154.181Z" fill="#F96941"/>
</svg>
