<svg width="45" height="45" viewBox="0 0 45 45" fill="none" xmlns="http://www.w3.org/2000/svg">
<circle cx="22.5" cy="22.5" r="22.5" fill="#C4C4C4"/>
<path d="M22.9205 11C24.5012 11 26.0172 11.628 27.135 12.7457C28.2527 13.8635 28.8807 15.3795 28.8807 16.9602C28.8807 18.541 28.2527 20.057 27.135 21.1747C26.0172 22.2925 24.5012 22.9205 22.9205 22.9205C21.3397 22.9205 19.8237 22.2925 18.7059 21.1747C17.5882 20.057 16.9602 18.541 16.9602 16.9602C16.9602 15.3795 17.5882 13.8635 18.7059 12.7457C19.8237 11.628 21.3397 11 22.9205 11ZM22.9205 25.9006C29.5065 25.9006 34.8409 28.5678 34.8409 31.8608V34.8409H11V31.8608C11 28.5678 16.3344 25.9006 22.9205 25.9006Z" fill="#939393"/>
</svg>
