<svg width="50" height="50" viewBox="0 0 50 50" fill="none" xmlns="http://www.w3.org/2000/svg">
<circle cx="25" cy="25" r="25" fill="#E8401B"/>
<path d="M25.0015 20.5C23.808 20.5 22.6634 20.9741 21.8195 21.818C20.9756 22.6619 20.5015 23.8065 20.5015 25C20.5015 26.1935 20.9756 27.3381 21.8195 28.182C22.6634 29.0259 23.808 29.5 25.0015 29.5C26.195 29.5 27.3396 29.0259 28.1835 28.182C29.0274 27.3381 29.5015 26.1935 29.5015 25C29.5015 23.8065 29.0274 22.6619 28.1835 21.818C27.3396 20.9741 26.195 20.5 25.0015 20.5ZM25.0015 17.5C26.9906 17.5 28.8983 18.2902 30.3048 19.6967C31.7113 21.1032 32.5015 23.0109 32.5015 25C32.5015 26.9891 31.7113 28.8968 30.3048 30.3033C28.8983 31.7098 26.9906 32.5 25.0015 32.5C23.0124 32.5 21.1047 31.7098 19.6982 30.3033C18.2917 28.8968 17.5015 26.9891 17.5015 25C17.5015 23.0109 18.2917 21.1032 19.6982 19.6967C21.1047 18.2902 23.0124 17.5 25.0015 17.5ZM34.7515 17.125C34.7515 17.6223 34.554 18.0992 34.2023 18.4508C33.8507 18.8025 33.3738 19 32.8765 19C32.3792 19 31.9023 18.8025 31.5507 18.4508C31.199 18.0992 31.0015 17.6223 31.0015 17.125C31.0015 16.6277 31.199 16.1508 31.5507 15.7992C31.9023 15.4475 32.3792 15.25 32.8765 15.25C33.3738 15.25 33.8507 15.4475 34.2023 15.7992C34.554 16.1508 34.7515 16.6277 34.7515 17.125ZM25.0015 13C21.2905 13 20.6845 13.0105 18.958 13.087C17.782 13.1425 16.993 13.3 16.261 13.585C15.6484 13.8099 15.0946 14.1704 14.641 14.6395C14.1715 15.0931 13.8105 15.6469 13.585 16.2595C13.3 16.9945 13.1425 17.782 13.0885 18.9565C13.0105 20.6125 13 21.1915 13 25C13 28.7125 13.0105 29.317 13.087 31.0435C13.1425 32.218 13.3 33.0085 13.5835 33.739C13.8385 34.3915 14.1385 34.861 14.6365 35.359C15.142 35.863 15.6115 36.1645 16.2565 36.4135C16.9975 36.7 17.7865 36.859 18.9565 36.913C20.6125 36.991 21.1915 37 25 37C28.7125 37 29.317 36.9895 31.0435 36.913C32.2165 36.8575 33.0055 36.7 33.739 36.4165C34.351 36.1905 34.9046 35.8302 35.359 35.362C35.8645 34.858 36.166 34.3885 36.415 33.742C36.7 33.004 36.859 32.215 36.913 31.042C36.991 29.3875 37 28.807 37 25C37 21.289 36.9895 20.683 36.913 18.9565C36.8575 17.7835 36.6985 16.9915 36.415 16.2595C36.1889 15.6475 35.8286 15.094 35.3605 14.6395C34.9071 14.1698 34.3533 13.8088 33.7405 13.5835C33.0055 13.2985 32.2165 13.141 31.0435 13.087C29.389 13.009 28.81 13 25 13M25 10C29.0755 10 29.584 10.015 31.1845 10.09C32.7805 10.165 33.8695 10.4155 34.825 10.7875C35.815 11.1685 36.649 11.6845 37.483 12.517C38.2457 13.2668 38.8359 14.1739 39.2125 15.175C39.583 16.1305 39.835 17.2195 39.91 18.817C39.9805 20.416 40 20.9245 40 25C40 29.0755 39.985 29.584 39.91 31.183C39.835 32.7805 39.583 33.868 39.2125 34.825C38.837 35.8266 38.2466 36.7339 37.483 37.483C36.7329 38.2455 35.826 38.8356 34.825 39.2125C33.8695 39.583 32.7805 39.835 31.1845 39.91C29.584 39.9805 29.0755 40 25 40C20.9245 40 20.416 39.985 18.8155 39.91C17.2195 39.835 16.132 39.583 15.175 39.2125C14.1735 38.8367 13.2663 38.2464 12.517 37.483C11.7541 36.7332 11.1639 35.8262 10.7875 34.825C10.4155 33.8695 10.165 32.7805 10.09 31.183C10.018 29.584 10 29.0755 10 25C10 20.9245 10.015 20.416 10.09 18.817C10.165 17.2195 10.4155 16.132 10.7875 15.175C11.1629 14.1733 11.7532 13.266 12.517 12.517C13.2665 11.7538 14.1736 11.1636 15.175 10.7875C16.1305 10.4155 17.218 10.165 18.8155 10.09C20.4175 10.0195 20.926 10 25.0015 10" fill="black"/>
</svg>
