<svg width="20" height="30" viewBox="0 0 20 30" fill="none" xmlns="http://www.w3.org/2000/svg">
<path fill-rule="evenodd" clip-rule="evenodd" d="M0.978222 17.1403C0.351835 16.5536 0 15.7584 0 14.9292C0 14.1 0.351835 13.3048 0.978222 12.7181L13.5907 0.915984C14.2181 0.329294 15.0691 -0.000195506 15.9563 8.70319e-08C16.3956 9.69349e-05 16.8305 0.0811303 17.2364 0.238474C17.6422 0.395818 18.0109 0.62639 18.3214 0.917027C18.632 1.20766 18.8783 1.55267 19.0463 1.93235C19.2143 2.31204 19.3008 2.71896 19.3007 3.12988C19.3006 3.54081 19.2139 3.94769 19.0457 4.3273C18.8775 4.70691 18.631 5.05181 18.3203 5.34231L8.07383 14.9292L18.3226 24.5161C18.6422 24.8046 18.8972 25.1497 19.0727 25.5314C19.2481 25.913 19.3406 26.3236 19.3447 26.739C19.3488 27.1545 19.2643 27.5665 19.0963 27.9511C18.9283 28.3357 18.6802 28.6852 18.3662 28.9791C18.0523 29.273 17.679 29.5055 17.268 29.663C16.857 29.8205 16.4166 29.8999 15.9725 29.8964C15.5283 29.893 15.0894 29.8069 14.6812 29.6431C14.273 29.4793 13.9038 29.2411 13.5951 28.9424L0.973763 17.1403H0.978222Z" fill="url(#paint0_linear_713_7110)"/>
<defs>
<linearGradient id="paint0_linear_713_7110" x1="12.9278" y1="9.79401" x2="21.6086" y2="36.3791" gradientUnits="userSpaceOnUse">
<stop offset="0.098558" stop-color="#FF4D00"/>
<stop offset="1" stop-color="#FF9900"/>
</linearGradient>
</defs>
</svg>
