<svg width="21" height="31" viewBox="0 0 21 31" fill="none" xmlns="http://www.w3.org/2000/svg">
<path fill-rule="evenodd" clip-rule="evenodd" d="M19.1919 13.2638C19.8198 13.852 20.1724 14.6493 20.1724 15.4806C20.1724 16.3119 19.8198 17.1092 19.1919 17.6974L6.55064 29.5299C5.92172 30.1181 5.06883 30.4485 4.17961 30.4483C3.29038 30.4481 2.43766 30.1174 1.80904 29.5289C1.18041 28.9404 0.827366 28.1424 0.827576 27.3103C0.827785 26.4783 1.18123 25.6804 1.81015 25.0922L12.0823 15.4806L1.81015 5.86902C1.19916 5.27766 0.860836 4.4854 0.868057 3.6629C0.875278 2.8404 1.22746 2.05345 1.84876 1.47156C2.47006 0.889671 3.31075 0.559391 4.18978 0.551859C5.0688 0.544327 5.91582 0.860144 6.54841 1.43129L19.1942 13.2617L19.1919 13.2638Z" fill="url(#paint0_linear_711_2302)"/>
<defs>
<linearGradient id="paint0_linear_711_2302" x1="13.7553" y1="10.3457" x2="22.4362" y2="36.9308" gradientUnits="userSpaceOnUse">
<stop offset="0.098558" stop-color="#FF4D00"/>
<stop offset="1" stop-color="#FF9900"/>
</linearGradient>
</defs>
</svg>
