<svg width="50" height="50" viewBox="0 0 50 50" fill="none" xmlns="http://www.w3.org/2000/svg">
<circle cx="25" cy="25" r="25" fill="#E8401B"/>
<path d="M35.6281 14.387C34.246 12.9909 32.5998 11.884 30.7854 11.1308C28.971 10.3776 27.0248 9.99325 25.0603 10.0001C16.8291 10.0001 10.1206 16.7086 10.1206 24.9398C10.1206 27.578 10.8141 30.1408 12.1106 32.4021L10 40.1508L17.9146 38.0704C20.1005 39.2614 22.5578 39.8946 25.0603 39.8946C33.2915 39.8946 40 33.186 40 24.9549C40 20.9599 38.4472 17.2061 35.6281 14.387ZM25.0603 37.3619C22.8291 37.3619 20.6432 36.7589 18.7286 35.6282L18.2764 35.3569L13.5729 36.5931L14.8241 32.0101L14.5226 31.5428C13.283 29.5634 12.6248 27.2753 12.6231 24.9398C12.6231 18.0956 18.201 12.5177 25.0452 12.5177C28.3618 12.5177 31.4824 13.8142 33.8191 16.1659C34.9761 17.3176 35.893 18.6875 36.5167 20.1962C37.1403 21.7049 37.4583 23.3224 37.4523 24.9549C37.4824 31.7991 31.9045 37.3619 25.0603 37.3619ZM31.8744 28.0755C31.4975 27.8946 29.6583 26.99 29.3266 26.8544C28.9799 26.7338 28.7387 26.6735 28.4824 27.0353C28.2261 27.4121 27.5176 28.2564 27.3065 28.4976C27.0955 28.7539 26.8693 28.784 26.4925 28.588C26.1156 28.4071 24.9095 28.0001 23.4925 26.7338C22.3769 25.7388 21.6382 24.5177 21.4121 24.1408C21.201 23.7639 21.3819 23.5679 21.5779 23.3719C21.7437 23.2061 21.9548 22.9348 22.1357 22.7237C22.3166 22.5127 22.392 22.3468 22.5126 22.1056C22.6332 21.8493 22.5729 21.6383 22.4824 21.4574C22.392 21.2765 21.6382 19.4373 21.3367 18.6835C21.0352 17.9599 20.7186 18.0503 20.4925 18.0353H19.7688C19.5126 18.0353 19.1206 18.1257 18.7739 18.5026C18.4422 18.8795 17.4774 19.784 17.4774 21.6232C17.4774 23.4624 18.8191 25.2413 19 25.4825C19.1809 25.7388 21.6382 29.5076 25.3769 31.1207C26.2663 31.5127 26.9598 31.7388 27.5025 31.9046C28.392 32.191 29.206 32.1458 29.8543 32.0554C30.5779 31.9498 32.0703 31.1508 32.3719 30.2765C32.6884 29.4021 32.6884 28.6634 32.5829 28.4976C32.4774 28.3317 32.2513 28.2564 31.8744 28.0755Z" fill="black"/>
</svg>
