<svg width="1360" height="138" viewBox="0 0 1360 138" fill="none" xmlns="http://www.w3.org/2000/svg">
<g clip-path="url(#clip0_448_6364)">
<rect x="-32" width="1431" height="138" fill="url(#paint0_radial_448_6364)"/>
<path fill-rule="evenodd" clip-rule="evenodd" d="M12.9464 18.4457C14.2784 18.4457 15.58 17.9605 16.5227 17.1107C17.4629 16.2633 18.0013 15.09 18.0013 13.8895C18.0013 12.6912 17.4629 11.5157 16.5227 10.6682C15.58 9.81846 14.2784 9.33322 12.9464 9.33322C11.617 9.33322 10.3129 9.81846 9.37267 10.6682C8.42994 11.5157 7.8916 12.6912 7.8916 13.8895C7.8916 15.09 8.42994 16.2633 9.37267 17.1107C10.3129 17.9605 11.617 18.4457 12.9464 18.4457" fill="#444444" fill-opacity="0.13"/>
<path fill-rule="evenodd" clip-rule="evenodd" d="M68.5374 18.4457H68.5626C71.3484 18.4457 73.6048 16.4045 73.6048 13.8895C73.6048 11.3744 71.3484 9.33322 68.5626 9.33322H68.5374C65.754 9.33322 63.4951 11.3744 63.4951 13.8895C63.4951 16.4045 65.754 18.4457 68.5374 18.4457" fill="#444444" fill-opacity="0.13"/>
<path fill-rule="evenodd" clip-rule="evenodd" d="M39.8928 18.4457H39.918C42.7013 18.4457 44.9603 16.4045 44.9603 13.8895C44.9603 11.3744 42.7013 9.33322 39.918 9.33322H39.8928C37.1095 9.33322 34.8506 11.3744 34.8506 13.8895C34.8506 16.4045 37.1095 18.4457 39.8928 18.4457" fill="#444444" fill-opacity="0.13"/>
<mask id="mask0_448_6364" style="mask-type:luminance" maskUnits="userSpaceOnUse" x="90" y="9" width="12" height="11">
<path fill-rule="evenodd" clip-rule="evenodd" d="M90.9639 9.53418H101.747V19.2542H90.9639V9.53418Z" fill="white"/>
</mask>
<g mask="url(#mask0_448_6364)">
<path fill-rule="evenodd" clip-rule="evenodd" d="M96.3557 19.2542C97.7737 19.2542 99.1648 18.7366 100.168 17.8302C101.173 16.9262 101.748 15.6748 101.748 14.3942C101.748 13.116 101.173 11.8621 100.168 10.9582C99.1648 10.0518 97.7737 9.53418 96.3557 9.53418C94.935 9.53418 93.5466 10.0518 92.541 10.9582C91.5381 11.8621 90.9639 13.116 90.9639 14.3942C90.9639 15.6748 91.5381 16.9262 92.541 17.8302C93.5466 18.7366 94.935 19.2542 96.3557 19.2542" fill="#444444" fill-opacity="0.13"/>
</g>
<path fill-rule="evenodd" clip-rule="evenodd" d="M12.9464 38.1894C14.2784 38.1894 15.58 37.7042 16.5227 36.8544C17.4629 36.007 18.0013 34.8338 18.0013 33.6332C18.0013 32.4326 17.4629 31.2594 16.5227 30.4119C15.58 29.5622 14.2784 29.0769 12.9464 29.0769C11.617 29.0769 10.3129 29.5622 9.37267 30.4119C8.42994 31.2594 7.8916 32.4326 7.8916 33.6332C7.8916 34.8338 8.42994 36.007 9.37267 36.8544C10.3129 37.7042 11.617 38.1894 12.9464 38.1894" fill="#444444" fill-opacity="0.13"/>
<path fill-rule="evenodd" clip-rule="evenodd" d="M68.5374 38.1894H68.5626C71.3484 38.1894 73.6048 36.1482 73.6048 33.6332C73.6048 31.1181 71.3484 29.0769 68.5626 29.0769H68.5374C65.754 29.0769 63.4951 31.1181 63.4951 33.6332C63.4951 36.1482 65.754 38.1894 68.5374 38.1894" fill="#444444" fill-opacity="0.13"/>
<path fill-rule="evenodd" clip-rule="evenodd" d="M39.8928 38.1894H39.918C42.7013 38.1894 44.9603 36.1482 44.9603 33.6332C44.9603 31.1181 42.7013 29.0769 39.918 29.0769H39.8928C37.1095 29.0769 34.8506 31.1181 34.8506 33.6332C34.8506 36.1482 37.1095 38.1894 39.8928 38.1894" fill="#444444" fill-opacity="0.13"/>
<mask id="mask1_448_6364" style="mask-type:luminance" maskUnits="userSpaceOnUse" x="90" y="29" width="12" height="11">
<path fill-rule="evenodd" clip-rule="evenodd" d="M90.9639 29.8011H101.747V39.5211H90.9639V29.8011Z" fill="white"/>
</mask>
<g mask="url(#mask1_448_6364)">
<path fill-rule="evenodd" clip-rule="evenodd" d="M96.3557 39.5211C97.7737 39.5211 99.1648 39.0035 100.168 38.0971C101.173 37.1931 101.748 35.9417 101.748 34.6611C101.748 33.3805 101.173 32.129 100.168 31.225C99.1648 30.3187 97.7737 29.8011 96.3557 29.8011C94.935 29.8011 93.5466 30.3187 92.541 31.225C91.5381 32.129 90.9639 33.3805 90.9639 34.6611C90.9639 35.9417 91.5381 37.1931 92.541 38.0971C93.5466 39.0035 94.935 39.5211 96.3557 39.5211" fill="#444444" fill-opacity="0.13"/>
</g>
<path fill-rule="evenodd" clip-rule="evenodd" d="M12.9464 59.4519C14.2784 59.4519 15.58 58.9667 16.5227 58.1169C17.4629 57.2695 18.0013 56.0962 18.0013 54.8957C18.0013 53.6974 17.4629 52.5219 16.5227 51.6744C15.58 50.8247 14.2784 50.3394 12.9464 50.3394C11.617 50.3394 10.3129 50.8247 9.37267 51.6744C8.42994 52.5219 7.8916 53.6974 7.8916 54.8957C7.8916 56.0962 8.42994 57.2695 9.37267 58.1169C10.3129 58.9667 11.617 59.4519 12.9464 59.4519" fill="#444444" fill-opacity="0.13"/>
<path fill-rule="evenodd" clip-rule="evenodd" d="M68.5374 59.4519H68.5626C71.3484 59.4519 73.6048 57.4107 73.6048 54.8957C73.6048 52.3806 71.3484 50.3394 68.5626 50.3394H68.5374C65.754 50.3394 63.4951 52.3806 63.4951 54.8957C63.4951 57.4107 65.754 59.4519 68.5374 59.4519" fill="#444444" fill-opacity="0.13"/>
<path fill-rule="evenodd" clip-rule="evenodd" d="M39.8928 59.4519H39.918C42.7013 59.4519 44.9603 57.4107 44.9603 54.8957C44.9603 52.3806 42.7013 50.3394 39.918 50.3394H39.8928C37.1095 50.3394 34.8506 52.3806 34.8506 54.8957C34.8506 57.4107 37.1095 59.4519 39.8928 59.4519" fill="#444444" fill-opacity="0.13"/>
<mask id="mask2_448_6364" style="mask-type:luminance" maskUnits="userSpaceOnUse" x="90" y="49" width="12" height="10">
<path fill-rule="evenodd" clip-rule="evenodd" d="M90.9639 49.157H101.747V58.877H90.9639V49.157Z" fill="white"/>
</mask>
<g mask="url(#mask2_448_6364)">
<path fill-rule="evenodd" clip-rule="evenodd" d="M96.3557 58.877C97.7737 58.877 99.1648 58.3594 100.168 57.453C101.173 56.549 101.748 55.2976 101.748 54.017C101.748 52.7388 101.173 51.4849 100.168 50.581C99.1648 49.6746 97.7737 49.157 96.3557 49.157C94.935 49.157 93.5466 49.6746 92.541 50.581C91.5381 51.4849 90.9639 52.7388 90.9639 54.017C90.9639 55.2976 91.5381 56.549 92.541 57.453C93.5466 58.3594 94.935 58.877 96.3557 58.877" fill="#444444" fill-opacity="0.13"/>
</g>
<path fill-rule="evenodd" clip-rule="evenodd" d="M12.9464 79.1956C14.2784 79.1956 15.58 78.7104 16.5227 77.8629C17.4629 77.0132 18.0013 75.8399 18.0013 74.6394C18.0013 73.4411 17.4629 72.2656 16.5227 71.4181C15.58 70.5684 14.2784 70.0831 12.9464 70.0831C11.617 70.0831 10.3129 70.5684 9.37267 71.4181C8.42994 72.2656 7.8916 73.4411 7.8916 74.6394C7.8916 75.8399 8.42994 77.0132 9.37267 77.8629C10.3129 78.7104 11.617 79.1956 12.9464 79.1956" fill="#444444" fill-opacity="0.13"/>
<path fill-rule="evenodd" clip-rule="evenodd" d="M68.5374 79.1956H68.5626C71.3484 79.1956 73.6048 77.1544 73.6048 74.6394C73.6048 72.1243 71.3484 70.0831 68.5626 70.0831H68.5374C65.754 70.0831 63.4951 72.1243 63.4951 74.6394C63.4951 77.1544 65.754 79.1956 68.5374 79.1956" fill="#444444" fill-opacity="0.13"/>
<path fill-rule="evenodd" clip-rule="evenodd" d="M39.8928 79.1956H39.918C42.7013 79.1956 44.9603 77.1544 44.9603 74.6394C44.9603 72.1243 42.7013 70.0831 39.918 70.0831H39.8928C37.1095 70.0831 34.8506 72.1243 34.8506 74.6394C34.8506 77.1544 37.1095 79.1956 39.8928 79.1956" fill="#444444" fill-opacity="0.13"/>
<mask id="mask3_448_6364" style="mask-type:luminance" maskUnits="userSpaceOnUse" x="90" y="69" width="12" height="11">
<path fill-rule="evenodd" clip-rule="evenodd" d="M90.9639 69.4239H101.747V79.1439H90.9639V69.4239Z" fill="white"/>
</mask>
<g mask="url(#mask3_448_6364)">
<path fill-rule="evenodd" clip-rule="evenodd" d="M96.3557 79.1439C97.7737 79.1439 99.1648 78.6263 100.168 77.7223C101.173 76.8159 101.748 75.5645 101.748 74.2839C101.748 73.0057 101.173 71.7518 100.168 70.8479C99.1648 69.9415 97.7737 69.4239 96.3557 69.4239C94.935 69.4239 93.5466 69.9415 92.541 70.8479C91.5381 71.7518 90.9639 73.0057 90.9639 74.2839C90.9639 75.5645 91.5381 76.8159 92.541 77.7223C93.5466 78.6263 94.935 79.1439 96.3557 79.1439" fill="#444444" fill-opacity="0.13"/>
</g>
<path fill-rule="evenodd" clip-rule="evenodd" d="M12.9464 98.9394C14.2784 98.9394 15.58 98.4541 16.5227 97.6044C17.4629 96.7569 18.0013 95.5837 18.0013 94.3831C18.0013 93.1848 17.4629 92.0093 16.5227 91.1619C15.58 90.3121 14.2784 89.8269 12.9464 89.8269C11.617 89.8269 10.3129 90.3121 9.37267 91.1619C8.42994 92.0093 7.8916 93.1848 7.8916 94.3831C7.8916 95.5837 8.42994 96.7569 9.37267 97.6044C10.3129 98.4541 11.617 98.9394 12.9464 98.9394" fill="#444444" fill-opacity="0.13"/>
<path fill-rule="evenodd" clip-rule="evenodd" d="M68.5374 98.9394H68.5626C71.3484 98.9394 73.6048 96.8982 73.6048 94.3831C73.6048 91.8681 71.3484 89.8269 68.5626 89.8269H68.5374C65.754 89.8269 63.4951 91.8681 63.4951 94.3831C63.4951 96.8982 65.754 98.9394 68.5374 98.9394" fill="#444444" fill-opacity="0.13"/>
<path fill-rule="evenodd" clip-rule="evenodd" d="M39.8928 98.9394H39.918C42.7013 98.9394 44.9603 96.8982 44.9603 94.3831C44.9603 91.8681 42.7013 89.8269 39.918 89.8269H39.8928C37.1095 89.8269 34.8506 91.8681 34.8506 94.3831C34.8506 96.8982 37.1095 98.9394 39.8928 98.9394" fill="#444444" fill-opacity="0.13"/>
<mask id="mask4_448_6364" style="mask-type:luminance" maskUnits="userSpaceOnUse" x="90" y="89" width="12" height="11">
<path fill-rule="evenodd" clip-rule="evenodd" d="M90.9639 89.6908H101.747V99.4108H90.9639V89.6908Z" fill="white"/>
</mask>
<g mask="url(#mask4_448_6364)">
<path fill-rule="evenodd" clip-rule="evenodd" d="M96.3557 99.4108C97.7737 99.4108 99.1648 98.8932 100.168 97.9868C101.173 97.0828 101.748 95.8314 101.748 94.5508C101.748 93.2726 101.173 92.0187 100.168 91.1148C99.1648 90.2084 97.7737 89.6908 96.3557 89.6908C94.935 89.6908 93.5466 90.2084 92.541 91.1148C91.5381 92.0187 90.9639 93.2726 90.9639 94.5508C90.9639 95.8314 91.5381 97.0828 92.541 97.9868C93.5466 98.8932 94.935 99.4108 96.3557 99.4108" fill="#444444" fill-opacity="0.13"/>
</g>
<path fill-rule="evenodd" clip-rule="evenodd" d="M12.9464 118.683C14.2784 118.683 15.58 118.198 16.5227 117.35C17.4629 116.501 18.0013 115.327 18.0013 114.127C18.0013 112.929 17.4629 111.753 16.5227 110.906C15.58 110.056 14.2784 109.571 12.9464 109.571C11.617 109.571 10.3129 110.056 9.37267 110.906C8.42994 111.753 7.8916 112.929 7.8916 114.127C7.8916 115.327 8.42994 116.501 9.37267 117.35C10.3129 118.198 11.617 118.683 12.9464 118.683" fill="#444444" fill-opacity="0.13"/>
<path fill-rule="evenodd" clip-rule="evenodd" d="M68.5374 118.683H68.5626C71.3484 118.683 73.6048 116.644 73.6048 114.127C73.6048 111.612 71.3484 109.571 68.5626 109.571H68.5374C65.754 109.571 63.4951 111.612 63.4951 114.127C63.4951 116.644 65.754 118.683 68.5374 118.683" fill="#444444" fill-opacity="0.13"/>
<path fill-rule="evenodd" clip-rule="evenodd" d="M39.8928 118.683H39.918C42.7013 118.683 44.9603 116.644 44.9603 114.127C44.9603 111.612 42.7013 109.571 39.918 109.571H39.8928C37.1095 109.571 34.8506 111.612 34.8506 114.127C34.8506 116.644 37.1095 118.683 39.8928 118.683" fill="#444444" fill-opacity="0.13"/>
<mask id="mask5_448_6364" style="mask-type:luminance" maskUnits="userSpaceOnUse" x="90" y="109" width="12" height="11">
<path fill-rule="evenodd" clip-rule="evenodd" d="M90.9639 109.958H101.747V119.678H90.9639V109.958Z" fill="white"/>
</mask>
<g mask="url(#mask5_448_6364)">
<path fill-rule="evenodd" clip-rule="evenodd" d="M96.3557 119.678C97.7737 119.678 99.1648 119.16 100.168 118.256C101.173 117.35 101.748 116.099 101.748 114.818C101.748 113.54 101.173 112.286 100.168 111.382C99.1648 110.476 97.7737 109.958 96.3557 109.958C94.935 109.958 93.5466 110.476 92.541 111.382C91.5381 112.286 90.9639 113.54 90.9639 114.818C90.9639 116.099 91.5381 117.35 92.541 118.256C93.5466 119.16 94.935 119.678 96.3557 119.678" fill="#444444" fill-opacity="0.13"/>
</g>
<mask id="mask6_448_6364" style="mask-type:luminance" maskUnits="userSpaceOnUse" x="6" y="129" width="12" height="10">
<path fill-rule="evenodd" clip-rule="evenodd" d="M6.88281 129.315H17.6665V138.427H6.88281V129.315Z" fill="white"/>
</mask>
<g mask="url(#mask6_448_6364)">
<path fill-rule="evenodd" clip-rule="evenodd" d="M12.2746 138.427C13.6954 138.427 15.0838 137.942 16.0894 137.092C17.0922 136.245 17.6665 135.069 17.6665 133.871C17.6665 132.67 17.0922 131.497 16.0894 130.647C15.0838 129.8 13.6954 129.315 12.2746 129.315C10.8566 129.315 9.4655 129.8 8.46262 130.647C7.45704 131.497 6.88281 132.67 6.88281 133.871C6.88281 135.069 7.45704 136.245 8.46262 137.092C9.4655 137.942 10.8566 138.427 12.2746 138.427" fill="#444444" fill-opacity="0.13"/>
</g>
<mask id="mask7_448_6364" style="mask-type:luminance" maskUnits="userSpaceOnUse" x="62" y="129" width="12" height="10">
<path fill-rule="evenodd" clip-rule="evenodd" d="M62.4736 129.315H73.2843V138.427H62.4736V129.315Z" fill="white"/>
</mask>
<g mask="url(#mask7_448_6364)">
<path fill-rule="evenodd" clip-rule="evenodd" d="M67.8655 138.427H67.8924C70.8714 138.427 73.2843 136.386 73.2843 133.871C73.2843 131.354 70.8714 129.315 67.8924 129.315H67.8655C64.8892 129.315 62.4736 131.354 62.4736 133.871C62.4736 136.386 64.8892 138.427 67.8655 138.427" fill="#444444" fill-opacity="0.13"/>
</g>
<mask id="mask8_448_6364" style="mask-type:luminance" maskUnits="userSpaceOnUse" x="34" y="129" width="12" height="10">
<path fill-rule="evenodd" clip-rule="evenodd" d="M34.6719 129.315H45.4825V138.427H34.6719V129.315Z" fill="white"/>
</mask>
<g mask="url(#mask8_448_6364)">
<path fill-rule="evenodd" clip-rule="evenodd" d="M40.0637 138.427H40.0907C43.067 138.427 45.4825 136.386 45.4825 133.871C45.4825 131.354 43.067 129.315 40.0907 129.315H40.0637C37.0874 129.315 34.6719 131.354 34.6719 133.871C34.6719 136.386 37.0874 138.427 40.0637 138.427" fill="#444444" fill-opacity="0.13"/>
</g>
<mask id="mask9_448_6364" style="mask-type:luminance" maskUnits="userSpaceOnUse" x="90" y="129" width="12" height="10">
<path fill-rule="evenodd" clip-rule="evenodd" d="M90.9639 129.315H101.747V138.427H90.9639V129.315Z" fill="white"/>
</mask>
<g mask="url(#mask9_448_6364)">
<path fill-rule="evenodd" clip-rule="evenodd" d="M96.3557 138.427C97.7737 138.427 99.1648 137.942 100.168 137.092C101.173 136.245 101.748 135.069 101.748 133.871C101.748 132.67 101.173 131.497 100.168 130.647C99.1648 129.8 97.7737 129.315 96.3557 129.315C94.935 129.315 93.5466 129.8 92.541 130.647C91.5381 131.497 90.9639 132.67 90.9639 133.871C90.9639 135.069 91.5381 136.245 92.541 137.092C93.5466 137.942 94.935 138.427 96.3557 138.427" fill="#444444" fill-opacity="0.13"/>
</g>
<path fill-rule="evenodd" clip-rule="evenodd" d="M122.308 18.4456C123.637 18.4456 124.941 17.9603 125.882 17.1106C126.824 16.2631 127.363 15.0899 127.363 13.8893C127.363 12.6911 126.824 11.5155 125.882 10.6681C124.941 9.81834 123.637 9.3331 122.308 9.3331C120.976 9.3331 119.674 9.81834 118.731 10.6681C117.791 11.5155 117.253 12.6911 117.253 13.8893C117.253 15.0899 117.791 16.2631 118.731 17.1106C119.674 17.9603 120.976 18.4456 122.308 18.4456" fill="#676767" fill-opacity="0.09"/>
<path fill-rule="evenodd" clip-rule="evenodd" d="M177.899 18.4456H177.924C180.71 18.4456 182.966 16.4044 182.966 13.8893C182.966 11.3743 180.71 9.3331 177.924 9.3331H177.899C175.115 9.3331 172.856 11.3743 172.856 13.8893C172.856 16.4044 175.115 18.4456 177.899 18.4456" fill="#676767" fill-opacity="0.09"/>
<path fill-rule="evenodd" clip-rule="evenodd" d="M150.94 18.4456H150.965C153.748 18.4456 156.007 16.4044 156.007 13.8893C156.007 11.3743 153.748 9.3331 150.965 9.3331H150.94C148.156 9.3331 145.897 11.3743 145.897 13.8893C145.897 16.4044 148.156 18.4456 150.94 18.4456" fill="#676767" fill-opacity="0.09"/>
<path fill-rule="evenodd" clip-rule="evenodd" d="M206.555 18.4456C207.884 18.4456 209.188 17.9603 210.129 17.1106C211.071 16.2631 211.61 15.0899 211.61 13.8893C211.61 12.6911 211.071 11.5155 210.129 10.6681C209.188 9.81834 207.884 9.3331 206.555 9.3331C205.223 9.3331 203.921 9.81834 202.979 10.6681C202.038 11.5155 201.5 12.6911 201.5 13.8893C201.5 15.0899 202.038 16.2631 202.979 17.1106C203.921 17.9603 205.223 18.4456 206.555 18.4456" fill="#676767" fill-opacity="0.09"/>
<path fill-rule="evenodd" clip-rule="evenodd" d="M235.199 18.4456C236.531 18.4456 237.833 17.9603 238.776 17.1106C239.716 16.2631 240.254 15.0899 240.254 13.8893C240.254 12.6911 239.716 11.5155 238.776 10.6681C237.833 9.81834 236.531 9.3331 235.199 9.3331C233.87 9.3331 232.566 9.81834 231.626 10.6681C230.683 11.5155 230.145 12.6911 230.145 13.8893C230.145 15.0899 230.683 16.2631 231.626 17.1106C232.566 17.9603 233.87 18.4456 235.199 18.4456" fill="#676767" fill-opacity="0.09"/>
<path fill-rule="evenodd" clip-rule="evenodd" d="M290.79 18.4456H290.815C293.601 18.4456 295.858 16.4044 295.858 13.8893C295.858 11.3743 293.601 9.3331 290.815 9.3331H290.79C288.007 9.3331 285.748 11.3743 285.748 13.8893C285.748 16.4044 288.007 18.4456 290.79 18.4456" fill="#676767" fill-opacity="0.09"/>
<path fill-rule="evenodd" clip-rule="evenodd" d="M262.146 18.4456H262.171C264.954 18.4456 267.213 16.4044 267.213 13.8893C267.213 11.3743 264.954 9.3331 262.171 9.3331H262.146C259.362 9.3331 257.104 11.3743 257.104 13.8893C257.104 16.4044 259.362 18.4456 262.146 18.4456" fill="#676767" fill-opacity="0.09"/>
<mask id="mask10_448_6364" style="mask-type:luminance" maskUnits="userSpaceOnUse" x="313" y="9" width="11" height="11">
<path fill-rule="evenodd" clip-rule="evenodd" d="M313.217 9.53406H324V19.254H313.217V9.53406Z" fill="white"/>
</mask>
<g mask="url(#mask10_448_6364)">
<path fill-rule="evenodd" clip-rule="evenodd" d="M318.609 19.254C320.027 19.254 321.418 18.7365 322.421 17.8301C323.426 16.9261 324 15.6747 324 14.3941C324 13.1159 323.426 11.862 322.421 10.958C321.418 10.0516 320.027 9.53406 318.609 9.53406C317.188 9.53406 315.799 10.0516 314.794 10.958C313.791 11.862 313.217 13.1159 313.217 14.3941C313.217 15.6747 313.791 16.9261 314.794 17.8301C315.799 18.7365 317.188 19.254 318.609 19.254" fill="#676767" fill-opacity="0.09"/>
</g>
<path fill-rule="evenodd" clip-rule="evenodd" d="M122.308 38.1893C123.637 38.1893 124.941 37.7041 125.882 36.8543C126.824 36.0069 127.363 34.8336 127.363 33.6331C127.363 32.4325 126.824 31.2593 125.882 30.4118C124.941 29.5621 123.637 29.0768 122.308 29.0768C120.976 29.0768 119.674 29.5621 118.731 30.4118C117.791 31.2593 117.253 32.4325 117.253 33.6331C117.253 34.8336 117.791 36.0069 118.731 36.8543C119.674 37.7041 120.976 38.1893 122.308 38.1893" fill="#676767" fill-opacity="0.09"/>
<path fill-rule="evenodd" clip-rule="evenodd" d="M177.899 38.1893H177.924C180.71 38.1893 182.966 36.1481 182.966 33.6331C182.966 31.118 180.71 29.0768 177.924 29.0768H177.899C175.115 29.0768 172.856 31.118 172.856 33.6331C172.856 36.1481 175.115 38.1893 177.899 38.1893" fill="#676767" fill-opacity="0.09"/>
<path fill-rule="evenodd" clip-rule="evenodd" d="M150.94 38.1893H150.965C153.748 38.1893 156.007 36.1481 156.007 33.6331C156.007 31.118 153.748 29.0768 150.965 29.0768H150.94C148.156 29.0768 145.897 31.118 145.897 33.6331C145.897 36.1481 148.156 38.1893 150.94 38.1893" fill="#676767" fill-opacity="0.09"/>
<path fill-rule="evenodd" clip-rule="evenodd" d="M206.555 38.1893C207.884 38.1893 209.188 37.7041 210.129 36.8543C211.071 36.0069 211.61 34.8336 211.61 33.6331C211.61 32.4325 211.071 31.2593 210.129 30.4118C209.188 29.5621 207.884 29.0768 206.555 29.0768C205.223 29.0768 203.921 29.5621 202.979 30.4118C202.038 31.2593 201.5 32.4325 201.5 33.6331C201.5 34.8336 202.038 36.0069 202.979 36.8543C203.921 37.7041 205.223 38.1893 206.555 38.1893" fill="#676767" fill-opacity="0.09"/>
<path fill-rule="evenodd" clip-rule="evenodd" d="M235.199 38.1893C236.531 38.1893 237.833 37.7041 238.776 36.8543C239.716 36.0069 240.254 34.8336 240.254 33.6331C240.254 32.4325 239.716 31.2593 238.776 30.4118C237.833 29.5621 236.531 29.0768 235.199 29.0768C233.87 29.0768 232.566 29.5621 231.626 30.4118C230.683 31.2593 230.145 32.4325 230.145 33.6331C230.145 34.8336 230.683 36.0069 231.626 36.8543C232.566 37.7041 233.87 38.1893 235.199 38.1893" fill="#676767" fill-opacity="0.09"/>
<path fill-rule="evenodd" clip-rule="evenodd" d="M290.79 38.1893H290.815C293.601 38.1893 295.858 36.1481 295.858 33.6331C295.858 31.118 293.601 29.0768 290.815 29.0768H290.79C288.007 29.0768 285.748 31.118 285.748 33.6331C285.748 36.1481 288.007 38.1893 290.79 38.1893" fill="#676767" fill-opacity="0.09"/>
<path fill-rule="evenodd" clip-rule="evenodd" d="M262.146 38.1893H262.171C264.954 38.1893 267.213 36.1481 267.213 33.6331C267.213 31.118 264.954 29.0768 262.171 29.0768H262.146C259.362 29.0768 257.104 31.118 257.104 33.6331C257.104 36.1481 259.362 38.1893 262.146 38.1893" fill="#676767" fill-opacity="0.09"/>
<mask id="mask11_448_6364" style="mask-type:luminance" maskUnits="userSpaceOnUse" x="313" y="29" width="11" height="11">
<path fill-rule="evenodd" clip-rule="evenodd" d="M313.217 29.8009H324V39.5209H313.217V29.8009Z" fill="white"/>
</mask>
<g mask="url(#mask11_448_6364)">
<path fill-rule="evenodd" clip-rule="evenodd" d="M318.609 39.5209C320.027 39.5209 321.418 39.0033 322.421 38.097C323.426 37.193 324 35.9416 324 34.6609C324 33.3803 323.426 32.1289 322.421 31.2249C321.418 30.3185 320.027 29.8009 318.609 29.8009C317.188 29.8009 315.799 30.3185 314.794 31.2249C313.791 32.1289 313.217 33.3803 313.217 34.6609C313.217 35.9416 313.791 37.193 314.794 38.097C315.799 39.0033 317.188 39.5209 318.609 39.5209" fill="#676767" fill-opacity="0.09"/>
</g>
<path fill-rule="evenodd" clip-rule="evenodd" d="M122.308 59.4518C123.637 59.4518 124.941 58.9665 125.882 58.1168C126.824 57.2693 127.363 56.0961 127.363 54.8955C127.363 53.6972 126.824 52.5217 125.882 51.6743C124.941 50.8245 123.637 50.3393 122.308 50.3393C120.976 50.3393 119.674 50.8245 118.731 51.6743C117.791 52.5217 117.253 53.6972 117.253 54.8955C117.253 56.0961 117.791 57.2693 118.731 58.1168C119.674 58.9665 120.976 59.4518 122.308 59.4518" fill="#676767" fill-opacity="0.09"/>
<path fill-rule="evenodd" clip-rule="evenodd" d="M177.899 59.4518H177.924C180.71 59.4518 182.966 57.4106 182.966 54.8955C182.966 52.3805 180.71 50.3393 177.924 50.3393H177.899C175.115 50.3393 172.856 52.3805 172.856 54.8955C172.856 57.4106 175.115 59.4518 177.899 59.4518" fill="#676767" fill-opacity="0.09"/>
<path fill-rule="evenodd" clip-rule="evenodd" d="M150.94 59.4518H150.965C153.748 59.4518 156.007 57.4106 156.007 54.8955C156.007 52.3805 153.748 50.3393 150.965 50.3393H150.94C148.156 50.3393 145.897 52.3805 145.897 54.8955C145.897 57.4106 148.156 59.4518 150.94 59.4518" fill="#676767" fill-opacity="0.09"/>
<path fill-rule="evenodd" clip-rule="evenodd" d="M206.555 59.4518C207.884 59.4518 209.188 58.9665 210.129 58.1168C211.071 57.2693 211.61 56.0961 211.61 54.8955C211.61 53.6972 211.071 52.5217 210.129 51.6743C209.188 50.8245 207.884 50.3393 206.555 50.3393C205.223 50.3393 203.921 50.8245 202.979 51.6743C202.038 52.5217 201.5 53.6972 201.5 54.8955C201.5 56.0961 202.038 57.2693 202.979 58.1168C203.921 58.9665 205.223 59.4518 206.555 59.4518" fill="#676767" fill-opacity="0.09"/>
<path fill-rule="evenodd" clip-rule="evenodd" d="M235.199 59.4518C236.531 59.4518 237.833 58.9665 238.776 58.1168C239.716 57.2693 240.254 56.0961 240.254 54.8955C240.254 53.6972 239.716 52.5217 238.776 51.6743C237.833 50.8245 236.531 50.3393 235.199 50.3393C233.87 50.3393 232.566 50.8245 231.626 51.6743C230.683 52.5217 230.145 53.6972 230.145 54.8955C230.145 56.0961 230.683 57.2693 231.626 58.1168C232.566 58.9665 233.87 59.4518 235.199 59.4518" fill="#676767" fill-opacity="0.09"/>
<path fill-rule="evenodd" clip-rule="evenodd" d="M290.79 59.4518H290.815C293.601 59.4518 295.858 57.4106 295.858 54.8955C295.858 52.3805 293.601 50.3393 290.815 50.3393H290.79C288.007 50.3393 285.748 52.3805 285.748 54.8955C285.748 57.4106 288.007 59.4518 290.79 59.4518" fill="#676767" fill-opacity="0.09"/>
<path fill-rule="evenodd" clip-rule="evenodd" d="M262.146 59.4518H262.171C264.954 59.4518 267.213 57.4106 267.213 54.8955C267.213 52.3805 264.954 50.3393 262.171 50.3393H262.146C259.362 50.3393 257.104 52.3805 257.104 54.8955C257.104 57.4106 259.362 59.4518 262.146 59.4518" fill="#676767" fill-opacity="0.09"/>
<mask id="mask12_448_6364" style="mask-type:luminance" maskUnits="userSpaceOnUse" x="313" y="49" width="11" height="10">
<path fill-rule="evenodd" clip-rule="evenodd" d="M313.217 49.1569H324V58.8768H313.217V49.1569Z" fill="white"/>
</mask>
<g mask="url(#mask12_448_6364)">
<path fill-rule="evenodd" clip-rule="evenodd" d="M318.609 58.8768C320.027 58.8768 321.418 58.3593 322.421 57.4529C323.426 56.5489 324 55.2975 324 54.0169C324 52.7387 323.426 51.4848 322.421 50.5808C321.418 49.6744 320.027 49.1569 318.609 49.1569C317.188 49.1569 315.799 49.6744 314.794 50.5808C313.791 51.4848 313.217 52.7387 313.217 54.0169C313.217 55.2975 313.791 56.5489 314.794 57.4529C315.799 58.3593 317.188 58.8768 318.609 58.8768" fill="#676767" fill-opacity="0.09"/>
</g>
<path fill-rule="evenodd" clip-rule="evenodd" d="M122.308 79.1955C123.637 79.1955 124.941 78.7103 125.882 77.8628C126.824 77.0131 127.363 75.8398 127.363 74.6393C127.363 73.441 126.824 72.2654 125.882 71.418C124.941 70.5682 123.637 70.083 122.308 70.083C120.976 70.083 119.674 70.5682 118.731 71.418C117.791 72.2654 117.253 73.441 117.253 74.6393C117.253 75.8398 117.791 77.0131 118.731 77.8628C119.674 78.7103 120.976 79.1955 122.308 79.1955" fill="#676767" fill-opacity="0.09"/>
<path fill-rule="evenodd" clip-rule="evenodd" d="M177.899 79.1955H177.924C180.71 79.1955 182.966 77.1543 182.966 74.6393C182.966 72.1242 180.71 70.083 177.924 70.083H177.899C175.115 70.083 172.856 72.1242 172.856 74.6393C172.856 77.1543 175.115 79.1955 177.899 79.1955" fill="#676767" fill-opacity="0.09"/>
<path fill-rule="evenodd" clip-rule="evenodd" d="M150.94 79.1955H150.965C153.748 79.1955 156.007 77.1543 156.007 74.6393C156.007 72.1242 153.748 70.083 150.965 70.083H150.94C148.156 70.083 145.897 72.1242 145.897 74.6393C145.897 77.1543 148.156 79.1955 150.94 79.1955" fill="#676767" fill-opacity="0.09"/>
<path fill-rule="evenodd" clip-rule="evenodd" d="M206.555 79.1955C207.884 79.1955 209.188 78.7103 210.129 77.8628C211.071 77.0131 211.61 75.8398 211.61 74.6393C211.61 73.441 211.071 72.2654 210.129 71.418C209.188 70.5682 207.884 70.083 206.555 70.083C205.223 70.083 203.921 70.5682 202.979 71.418C202.038 72.2654 201.5 73.441 201.5 74.6393C201.5 75.8398 202.038 77.0131 202.979 77.8628C203.921 78.7103 205.223 79.1955 206.555 79.1955" fill="#676767" fill-opacity="0.09"/>
<path fill-rule="evenodd" clip-rule="evenodd" d="M235.199 79.1955C236.531 79.1955 237.833 78.7103 238.776 77.8628C239.716 77.0131 240.254 75.8398 240.254 74.6393C240.254 73.441 239.716 72.2654 238.776 71.418C237.833 70.5682 236.531 70.083 235.199 70.083C233.87 70.083 232.566 70.5682 231.626 71.418C230.683 72.2654 230.145 73.441 230.145 74.6393C230.145 75.8398 230.683 77.0131 231.626 77.8628C232.566 78.7103 233.87 79.1955 235.199 79.1955" fill="#676767" fill-opacity="0.09"/>
<path fill-rule="evenodd" clip-rule="evenodd" d="M290.79 79.1955H290.815C293.601 79.1955 295.858 77.1543 295.858 74.6393C295.858 72.1242 293.601 70.083 290.815 70.083H290.79C288.007 70.083 285.748 72.1242 285.748 74.6393C285.748 77.1543 288.007 79.1955 290.79 79.1955" fill="#676767" fill-opacity="0.09"/>
<path fill-rule="evenodd" clip-rule="evenodd" d="M262.146 79.1955H262.171C264.954 79.1955 267.213 77.1543 267.213 74.6393C267.213 72.1242 264.954 70.083 262.171 70.083H262.146C259.362 70.083 257.104 72.1242 257.104 74.6393C257.104 77.1543 259.362 79.1955 262.146 79.1955" fill="#676767" fill-opacity="0.09"/>
<mask id="mask13_448_6364" style="mask-type:luminance" maskUnits="userSpaceOnUse" x="313" y="69" width="11" height="11">
<path fill-rule="evenodd" clip-rule="evenodd" d="M313.217 69.4238H324V79.1437H313.217V69.4238Z" fill="white"/>
</mask>
<g mask="url(#mask13_448_6364)">
<path fill-rule="evenodd" clip-rule="evenodd" d="M318.609 79.1437C320.027 79.1437 321.418 78.6262 322.421 77.7222C323.426 76.8158 324 75.5644 324 74.2837C324 73.0056 323.426 71.7517 322.421 70.8477C321.418 69.9413 320.027 69.4238 318.609 69.4238C317.188 69.4238 315.799 69.9413 314.794 70.8477C313.791 71.7517 313.217 73.0056 313.217 74.2837C313.217 75.5644 313.791 76.8158 314.794 77.7222C315.799 78.6262 317.188 79.1437 318.609 79.1437" fill="#676767" fill-opacity="0.09"/>
</g>
<path fill-rule="evenodd" clip-rule="evenodd" d="M122.308 98.9392C123.637 98.9392 124.941 98.454 125.882 97.6043C126.824 96.7568 127.363 95.5836 127.363 94.383C127.363 93.1847 126.824 92.0092 125.882 91.1617C124.941 90.312 123.637 89.8268 122.308 89.8268C120.976 89.8268 119.674 90.312 118.731 91.1617C117.791 92.0092 117.253 93.1847 117.253 94.383C117.253 95.5836 117.791 96.7568 118.731 97.6043C119.674 98.454 120.976 98.9392 122.308 98.9392" fill="#676767" fill-opacity="0.09"/>
<path fill-rule="evenodd" clip-rule="evenodd" d="M177.899 98.9392H177.924C180.71 98.9392 182.966 96.898 182.966 94.383C182.966 91.8679 180.71 89.8268 177.924 89.8268H177.899C175.115 89.8268 172.856 91.8679 172.856 94.383C172.856 96.898 175.115 98.9392 177.899 98.9392" fill="#676767" fill-opacity="0.09"/>
<path fill-rule="evenodd" clip-rule="evenodd" d="M150.94 98.9392H150.965C153.748 98.9392 156.007 96.898 156.007 94.383C156.007 91.8679 153.748 89.8268 150.965 89.8268H150.94C148.156 89.8268 145.897 91.8679 145.897 94.383C145.897 96.898 148.156 98.9392 150.94 98.9392" fill="#676767" fill-opacity="0.09"/>
<path fill-rule="evenodd" clip-rule="evenodd" d="M206.555 98.9392C207.884 98.9392 209.188 98.454 210.129 97.6043C211.071 96.7568 211.61 95.5836 211.61 94.383C211.61 93.1847 211.071 92.0092 210.129 91.1617C209.188 90.312 207.884 89.8268 206.555 89.8268C205.223 89.8268 203.921 90.312 202.979 91.1617C202.038 92.0092 201.5 93.1847 201.5 94.383C201.5 95.5836 202.038 96.7568 202.979 97.6043C203.921 98.454 205.223 98.9392 206.555 98.9392" fill="#676767" fill-opacity="0.09"/>
<path fill-rule="evenodd" clip-rule="evenodd" d="M235.199 98.9392C236.531 98.9392 237.833 98.454 238.776 97.6043C239.716 96.7568 240.254 95.5836 240.254 94.383C240.254 93.1847 239.716 92.0092 238.776 91.1617C237.833 90.312 236.531 89.8268 235.199 89.8268C233.87 89.8268 232.566 90.312 231.626 91.1617C230.683 92.0092 230.145 93.1847 230.145 94.383C230.145 95.5836 230.683 96.7568 231.626 97.6043C232.566 98.454 233.87 98.9392 235.199 98.9392" fill="#676767" fill-opacity="0.09"/>
<path fill-rule="evenodd" clip-rule="evenodd" d="M290.79 98.9392H290.815C293.601 98.9392 295.858 96.898 295.858 94.383C295.858 91.8679 293.601 89.8268 290.815 89.8268H290.79C288.007 89.8268 285.748 91.8679 285.748 94.383C285.748 96.898 288.007 98.9392 290.79 98.9392" fill="#676767" fill-opacity="0.09"/>
<path fill-rule="evenodd" clip-rule="evenodd" d="M262.146 98.9392H262.171C264.954 98.9392 267.213 96.898 267.213 94.383C267.213 91.8679 264.954 89.8268 262.171 89.8268H262.146C259.362 89.8268 257.104 91.8679 257.104 94.383C257.104 96.898 259.362 98.9392 262.146 98.9392" fill="#676767" fill-opacity="0.09"/>
<mask id="mask14_448_6364" style="mask-type:luminance" maskUnits="userSpaceOnUse" x="313" y="89" width="11" height="11">
<path fill-rule="evenodd" clip-rule="evenodd" d="M313.217 89.6907H324V99.4107H313.217V89.6907Z" fill="white"/>
</mask>
<g mask="url(#mask14_448_6364)">
<path fill-rule="evenodd" clip-rule="evenodd" d="M318.609 99.4107C320.027 99.4107 321.418 98.8931 322.421 97.9867C323.426 97.0827 324 95.8313 324 94.5507C324 93.2725 323.426 92.0186 322.421 91.1147C321.418 90.2083 320.027 89.6907 318.609 89.6907C317.188 89.6907 315.799 90.2083 314.794 91.1147C313.791 92.0186 313.217 93.2725 313.217 94.5507C313.217 95.8313 313.791 97.0827 314.794 97.9867C315.799 98.8931 317.188 99.4107 318.609 99.4107" fill="#676767" fill-opacity="0.09"/>
</g>
<path fill-rule="evenodd" clip-rule="evenodd" d="M122.308 118.683C123.637 118.683 124.941 118.198 125.882 117.35C126.824 116.501 127.363 115.327 127.363 114.127C127.363 112.928 126.824 111.753 125.882 110.905C124.941 110.056 123.637 109.57 122.308 109.57C120.976 109.57 119.674 110.056 118.731 110.905C117.791 111.753 117.253 112.928 117.253 114.127C117.253 115.327 117.791 116.501 118.731 117.35C119.674 118.198 120.976 118.683 122.308 118.683" fill="#676767" fill-opacity="0.09"/>
<path fill-rule="evenodd" clip-rule="evenodd" d="M177.899 118.683H177.924C180.71 118.683 182.966 116.644 182.966 114.127C182.966 111.612 180.71 109.57 177.924 109.57H177.899C175.115 109.57 172.856 111.612 172.856 114.127C172.856 116.644 175.115 118.683 177.899 118.683" fill="#676767" fill-opacity="0.09"/>
<path fill-rule="evenodd" clip-rule="evenodd" d="M150.94 118.683H150.965C153.748 118.683 156.007 116.644 156.007 114.127C156.007 111.612 153.748 109.57 150.965 109.57H150.94C148.156 109.57 145.897 111.612 145.897 114.127C145.897 116.644 148.156 118.683 150.94 118.683" fill="#676767" fill-opacity="0.09"/>
<path fill-rule="evenodd" clip-rule="evenodd" d="M206.555 118.683C207.884 118.683 209.188 118.198 210.129 117.35C211.071 116.501 211.61 115.327 211.61 114.127C211.61 112.928 211.071 111.753 210.129 110.905C209.188 110.056 207.884 109.57 206.555 109.57C205.223 109.57 203.921 110.056 202.979 110.905C202.038 111.753 201.5 112.928 201.5 114.127C201.5 115.327 202.038 116.501 202.979 117.35C203.921 118.198 205.223 118.683 206.555 118.683" fill="#676767" fill-opacity="0.09"/>
<path fill-rule="evenodd" clip-rule="evenodd" d="M235.199 118.683C236.531 118.683 237.833 118.198 238.776 117.35C239.716 116.501 240.254 115.327 240.254 114.127C240.254 112.928 239.716 111.753 238.776 110.905C237.833 110.056 236.531 109.57 235.199 109.57C233.87 109.57 232.566 110.056 231.626 110.905C230.683 111.753 230.145 112.928 230.145 114.127C230.145 115.327 230.683 116.501 231.626 117.35C232.566 118.198 233.87 118.683 235.199 118.683" fill="#676767" fill-opacity="0.09"/>
<path fill-rule="evenodd" clip-rule="evenodd" d="M290.79 118.683H290.815C293.601 118.683 295.858 116.644 295.858 114.127C295.858 111.612 293.601 109.57 290.815 109.57H290.79C288.007 109.57 285.748 111.612 285.748 114.127C285.748 116.644 288.007 118.683 290.79 118.683" fill="#676767" fill-opacity="0.09"/>
<path fill-rule="evenodd" clip-rule="evenodd" d="M262.146 118.683H262.171C264.954 118.683 267.213 116.644 267.213 114.127C267.213 111.612 264.954 109.57 262.171 109.57H262.146C259.362 109.57 257.104 111.612 257.104 114.127C257.104 116.644 259.362 118.683 262.146 118.683" fill="#676767" fill-opacity="0.09"/>
<mask id="mask15_448_6364" style="mask-type:luminance" maskUnits="userSpaceOnUse" x="313" y="109" width="11" height="11">
<path fill-rule="evenodd" clip-rule="evenodd" d="M313.217 109.958H324V119.678H313.217V109.958Z" fill="white"/>
</mask>
<g mask="url(#mask15_448_6364)">
<path fill-rule="evenodd" clip-rule="evenodd" d="M318.609 119.678C320.027 119.678 321.418 119.16 322.421 118.256C323.426 117.35 324 116.098 324 114.818C324 113.54 323.426 112.286 322.421 111.382C321.418 110.475 320.027 109.958 318.609 109.958C317.188 109.958 315.799 110.475 314.794 111.382C313.791 112.286 313.217 113.54 313.217 114.818C313.217 116.098 313.791 117.35 314.794 118.256C315.799 119.16 317.188 119.678 318.609 119.678" fill="#676767" fill-opacity="0.09"/>
</g>
<mask id="mask16_448_6364" style="mask-type:luminance" maskUnits="userSpaceOnUse" x="117" y="129" width="11" height="10">
<path fill-rule="evenodd" clip-rule="evenodd" d="M117.254 129.315H127.364V138.427H117.254V129.315Z" fill="white"/>
</mask>
<g mask="url(#mask16_448_6364)">
<path fill-rule="evenodd" clip-rule="evenodd" d="M122.309 138.427C123.638 138.427 124.942 137.942 125.883 137.092C126.825 136.245 127.364 135.069 127.364 133.871C127.364 132.67 126.825 131.497 125.883 130.647C124.942 129.8 123.638 129.315 122.309 129.315C120.977 129.315 119.675 129.8 118.732 130.647C117.792 131.497 117.254 132.67 117.254 133.871C117.254 135.069 117.792 136.245 118.732 137.092C119.675 137.942 120.977 138.427 122.309 138.427" fill="#676767" fill-opacity="0.09"/>
</g>
<mask id="mask17_448_6364" style="mask-type:luminance" maskUnits="userSpaceOnUse" x="172" y="129" width="12" height="10">
<path fill-rule="evenodd" clip-rule="evenodd" d="M172.844 129.315H183.654V138.427H172.844V129.315Z" fill="white"/>
</mask>
<g mask="url(#mask17_448_6364)">
<path fill-rule="evenodd" clip-rule="evenodd" d="M178.236 138.427H178.263C181.242 138.427 183.654 136.386 183.654 133.871C183.654 131.354 181.242 129.315 178.263 129.315H178.236C175.259 129.315 172.844 131.354 172.844 133.871C172.844 136.386 175.259 138.427 178.236 138.427" fill="#676767" fill-opacity="0.09"/>
</g>
<mask id="mask18_448_6364" style="mask-type:luminance" maskUnits="userSpaceOnUse" x="145" y="129" width="11" height="10">
<path fill-rule="evenodd" clip-rule="evenodd" d="M145.042 129.315H155.853V138.427H145.042V129.315Z" fill="white"/>
</mask>
<g mask="url(#mask18_448_6364)">
<path fill-rule="evenodd" clip-rule="evenodd" d="M150.434 138.427H150.461C153.437 138.427 155.853 136.386 155.853 133.871C155.853 131.354 153.437 129.315 150.461 129.315H150.434C147.458 129.315 145.042 131.354 145.042 133.871C145.042 136.386 147.458 138.427 150.434 138.427" fill="#676767" fill-opacity="0.09"/>
</g>
<mask id="mask19_448_6364" style="mask-type:luminance" maskUnits="userSpaceOnUse" x="200" y="129" width="12" height="10">
<path fill-rule="evenodd" clip-rule="evenodd" d="M200.66 129.315H211.444V138.427H200.66V129.315Z" fill="white"/>
</mask>
<g mask="url(#mask19_448_6364)">
<path fill-rule="evenodd" clip-rule="evenodd" d="M206.052 138.427C207.47 138.427 208.861 137.942 209.864 137.092C210.87 136.245 211.444 135.069 211.444 133.871C211.444 132.67 210.87 131.497 209.864 130.647C208.861 129.8 207.47 129.315 206.052 129.315C204.631 129.315 203.243 129.8 202.237 130.647C201.234 131.497 200.66 132.67 200.66 133.871C200.66 135.069 201.234 136.245 202.237 137.092C203.243 137.942 204.631 138.427 206.052 138.427" fill="#676767" fill-opacity="0.09"/>
</g>
<mask id="mask20_448_6364" style="mask-type:luminance" maskUnits="userSpaceOnUse" x="229" y="129" width="11" height="10">
<path fill-rule="evenodd" clip-rule="evenodd" d="M229.136 129.315H239.919V138.427H229.136V129.315Z" fill="white"/>
</mask>
<g mask="url(#mask20_448_6364)">
<path fill-rule="evenodd" clip-rule="evenodd" d="M234.528 138.427C235.948 138.427 237.337 137.942 238.342 137.092C239.345 136.245 239.919 135.069 239.919 133.871C239.919 132.67 239.345 131.497 238.342 130.647C237.337 129.8 235.948 129.315 234.528 129.315C233.11 129.315 231.718 129.8 230.716 130.647C229.71 131.497 229.136 132.67 229.136 133.871C229.136 135.069 229.71 136.245 230.716 137.092C231.718 137.942 233.11 138.427 234.528 138.427" fill="#676767" fill-opacity="0.09"/>
</g>
<mask id="mask21_448_6364" style="mask-type:luminance" maskUnits="userSpaceOnUse" x="284" y="129" width="12" height="10">
<path fill-rule="evenodd" clip-rule="evenodd" d="M284.727 129.315H295.537V138.427H284.727V129.315Z" fill="white"/>
</mask>
<g mask="url(#mask21_448_6364)">
<path fill-rule="evenodd" clip-rule="evenodd" d="M290.118 138.427H290.145C293.124 138.427 295.537 136.386 295.537 133.871C295.537 131.354 293.124 129.315 290.145 129.315H290.118C287.142 129.315 284.727 131.354 284.727 133.871C284.727 136.386 287.142 138.427 290.118 138.427" fill="#676767" fill-opacity="0.09"/>
</g>
<mask id="mask22_448_6364" style="mask-type:luminance" maskUnits="userSpaceOnUse" x="256" y="129" width="12" height="10">
<path fill-rule="evenodd" clip-rule="evenodd" d="M256.925 129.315H267.735V138.427H256.925V129.315Z" fill="white"/>
</mask>
<g mask="url(#mask22_448_6364)">
<path fill-rule="evenodd" clip-rule="evenodd" d="M262.317 138.427H262.344C265.32 138.427 267.735 136.386 267.735 133.871C267.735 131.354 265.32 129.315 262.344 129.315H262.317C259.34 129.315 256.925 131.354 256.925 133.871C256.925 136.386 259.34 138.427 262.317 138.427" fill="#676767" fill-opacity="0.09"/>
</g>
<mask id="mask23_448_6364" style="mask-type:luminance" maskUnits="userSpaceOnUse" x="313" y="129" width="11" height="10">
<path fill-rule="evenodd" clip-rule="evenodd" d="M313.217 129.315H324V138.427H313.217V129.315Z" fill="white"/>
</mask>
<g mask="url(#mask23_448_6364)">
<path fill-rule="evenodd" clip-rule="evenodd" d="M318.609 138.427C320.027 138.427 321.418 137.942 322.421 137.092C323.426 136.245 324 135.069 324 133.871C324 132.67 323.426 131.497 322.421 130.647C321.418 129.8 320.027 129.315 318.609 129.315C317.188 129.315 315.799 129.8 314.794 130.647C313.791 131.497 313.217 132.67 313.217 133.871C313.217 135.069 313.791 136.245 314.794 137.092C315.799 137.942 317.188 138.427 318.609 138.427" fill="#676767" fill-opacity="0.09"/>
</g>
<path fill-rule="evenodd" clip-rule="evenodd" d="M1042.05 10.1894C1043.38 10.1894 1044.69 9.70419 1045.63 8.85445C1046.57 8.00698 1047.11 6.83375 1047.11 5.63318C1047.11 4.43261 1046.57 3.25938 1045.63 2.41191C1044.69 1.56218 1043.38 1.07693 1042.05 1.07693C1040.72 1.07693 1039.42 1.56218 1038.48 2.41191C1037.54 3.25938 1037 4.43261 1037 5.63318C1037 6.83375 1037.54 8.00698 1038.48 8.85445C1039.42 9.70419 1040.72 10.1894 1042.05 10.1894" fill="#444444" fill-opacity="0.13"/>
<path fill-rule="evenodd" clip-rule="evenodd" d="M1097.65 10.1894H1097.67C1100.46 10.1894 1102.71 8.14823 1102.71 5.63318C1102.71 3.11813 1100.46 1.07693 1097.67 1.07693H1097.65C1094.86 1.07693 1092.6 3.11813 1092.6 5.63318C1092.6 8.14823 1094.86 10.1894 1097.65 10.1894" fill="#444444" fill-opacity="0.13"/>
<path fill-rule="evenodd" clip-rule="evenodd" d="M1070.69 10.1894H1070.71C1073.5 10.1894 1075.75 8.14823 1075.75 5.63318C1075.75 3.11813 1073.5 1.07693 1070.71 1.07693H1070.69C1067.9 1.07693 1065.64 3.11813 1065.64 5.63318C1065.64 8.14823 1067.9 10.1894 1070.69 10.1894" fill="#444444" fill-opacity="0.13"/>
<path fill-rule="evenodd" clip-rule="evenodd" d="M1126.3 10.1894C1127.63 10.1894 1128.94 9.70419 1129.88 8.85445C1130.82 8.00698 1131.36 6.83375 1131.36 5.63318C1131.36 4.43261 1130.82 3.25938 1129.88 2.41191C1128.94 1.56218 1127.63 1.07693 1126.3 1.07693C1124.97 1.07693 1123.67 1.56218 1122.73 2.41191C1121.79 3.25938 1121.25 4.43261 1121.25 5.63318C1121.25 6.83375 1121.79 8.00698 1122.73 8.85445C1123.67 9.70419 1124.97 10.1894 1126.3 10.1894" fill="#444444" fill-opacity="0.13"/>
<path fill-rule="evenodd" clip-rule="evenodd" d="M1154.95 10.1894C1156.28 10.1894 1157.58 9.70419 1158.52 8.85445C1159.46 8.00698 1160 6.83375 1160 5.63318C1160 4.43261 1159.46 3.25938 1158.52 2.41191C1157.58 1.56218 1156.28 1.07693 1154.95 1.07693C1153.62 1.07693 1152.31 1.56218 1151.37 2.41191C1150.43 3.25938 1149.89 4.43261 1149.89 5.63318C1149.89 6.83375 1150.43 8.00698 1151.37 8.85445C1152.31 9.70419 1153.62 10.1894 1154.95 10.1894" fill="#444444" fill-opacity="0.13"/>
<path fill-rule="evenodd" clip-rule="evenodd" d="M1210.54 10.1894H1210.56C1213.35 10.1894 1215.6 8.14823 1215.6 5.63318C1215.6 3.11813 1213.35 1.07693 1210.56 1.07693H1210.54C1207.75 1.07693 1205.5 3.11813 1205.5 5.63318C1205.5 8.14823 1207.75 10.1894 1210.54 10.1894" fill="#444444" fill-opacity="0.13"/>
<path fill-rule="evenodd" clip-rule="evenodd" d="M1181.89 10.1894H1181.92C1184.7 10.1894 1186.96 8.14823 1186.96 5.63318C1186.96 3.11813 1184.7 1.07693 1181.92 1.07693H1181.89C1179.11 1.07693 1176.85 3.11813 1176.85 5.63318C1176.85 8.14823 1179.11 10.1894 1181.89 10.1894" fill="#444444" fill-opacity="0.13"/>
<mask id="mask24_448_6364" style="mask-type:luminance" maskUnits="userSpaceOnUse" x="1232" y="1" width="12" height="11">
<path fill-rule="evenodd" clip-rule="evenodd" d="M1232.96 1.80109H1243.75V11.5211H1232.96V1.80109Z" fill="white"/>
</mask>
<g mask="url(#mask24_448_6364)">
<path fill-rule="evenodd" clip-rule="evenodd" d="M1238.36 11.5211C1239.77 11.5211 1241.16 11.0035 1242.17 10.0971C1243.17 9.19314 1243.75 7.94169 1243.75 6.66108C1243.75 5.38047 1243.17 4.12902 1242.17 3.22506C1241.16 2.31868 1239.77 1.80109 1238.36 1.80109C1236.93 1.80109 1235.55 2.31868 1234.54 3.22506C1233.54 4.12902 1232.96 5.38047 1232.96 6.66108C1232.96 7.94169 1233.54 9.19314 1234.54 10.0971C1235.55 11.0035 1236.93 11.5211 1238.36 11.5211" fill="#444444" fill-opacity="0.13"/>
</g>
<path fill-rule="evenodd" clip-rule="evenodd" d="M1042.05 31.4519C1043.38 31.4519 1044.69 30.9667 1045.63 30.1169C1046.57 29.2695 1047.11 28.0962 1047.11 26.8957C1047.11 25.6974 1046.57 24.5219 1045.63 23.6744C1044.69 22.8247 1043.38 22.3394 1042.05 22.3394C1040.72 22.3394 1039.42 22.8247 1038.48 23.6744C1037.54 24.5219 1037 25.6974 1037 26.8957C1037 28.0962 1037.54 29.2695 1038.48 30.1169C1039.42 30.9667 1040.72 31.4519 1042.05 31.4519" fill="#444444" fill-opacity="0.13"/>
<path fill-rule="evenodd" clip-rule="evenodd" d="M1097.65 31.4519H1097.67C1100.46 31.4519 1102.71 29.4107 1102.71 26.8957C1102.71 24.3806 1100.46 22.3394 1097.67 22.3394H1097.65C1094.86 22.3394 1092.6 24.3806 1092.6 26.8957C1092.6 29.4107 1094.86 31.4519 1097.65 31.4519" fill="#444444" fill-opacity="0.13"/>
<path fill-rule="evenodd" clip-rule="evenodd" d="M1070.69 31.4519H1070.71C1073.5 31.4519 1075.75 29.4107 1075.75 26.8957C1075.75 24.3806 1073.5 22.3394 1070.71 22.3394H1070.69C1067.9 22.3394 1065.64 24.3806 1065.64 26.8957C1065.64 29.4107 1067.9 31.4519 1070.69 31.4519" fill="#444444" fill-opacity="0.13"/>
<path fill-rule="evenodd" clip-rule="evenodd" d="M1126.3 31.4519C1127.63 31.4519 1128.94 30.9667 1129.88 30.1169C1130.82 29.2695 1131.36 28.0962 1131.36 26.8957C1131.36 25.6974 1130.82 24.5219 1129.88 23.6744C1128.94 22.8247 1127.63 22.3394 1126.3 22.3394C1124.97 22.3394 1123.67 22.8247 1122.73 23.6744C1121.79 24.5219 1121.25 25.6974 1121.25 26.8957C1121.25 28.0962 1121.79 29.2695 1122.73 30.1169C1123.67 30.9667 1124.97 31.4519 1126.3 31.4519" fill="#444444" fill-opacity="0.13"/>
<path fill-rule="evenodd" clip-rule="evenodd" d="M1154.95 31.4519C1156.28 31.4519 1157.58 30.9667 1158.52 30.1169C1159.46 29.2695 1160 28.0962 1160 26.8957C1160 25.6974 1159.46 24.5219 1158.52 23.6744C1157.58 22.8247 1156.28 22.3394 1154.95 22.3394C1153.62 22.3394 1152.31 22.8247 1151.37 23.6744C1150.43 24.5219 1149.89 25.6974 1149.89 26.8957C1149.89 28.0962 1150.43 29.2695 1151.37 30.1169C1152.31 30.9667 1153.62 31.4519 1154.95 31.4519" fill="#444444" fill-opacity="0.13"/>
<path fill-rule="evenodd" clip-rule="evenodd" d="M1210.54 31.4519H1210.56C1213.35 31.4519 1215.6 29.4107 1215.6 26.8957C1215.6 24.3806 1213.35 22.3394 1210.56 22.3394H1210.54C1207.75 22.3394 1205.5 24.3806 1205.5 26.8957C1205.5 29.4107 1207.75 31.4519 1210.54 31.4519" fill="#444444" fill-opacity="0.13"/>
<path fill-rule="evenodd" clip-rule="evenodd" d="M1181.89 31.4519H1181.92C1184.7 31.4519 1186.96 29.4107 1186.96 26.8957C1186.96 24.3806 1184.7 22.3394 1181.92 22.3394H1181.89C1179.11 22.3394 1176.85 24.3806 1176.85 26.8957C1176.85 29.4107 1179.11 31.4519 1181.89 31.4519" fill="#444444" fill-opacity="0.13"/>
<mask id="mask25_448_6364" style="mask-type:luminance" maskUnits="userSpaceOnUse" x="1232" y="21" width="12" height="10">
<path fill-rule="evenodd" clip-rule="evenodd" d="M1232.96 21.157H1243.75V30.877H1232.96V21.157Z" fill="white"/>
</mask>
<g mask="url(#mask25_448_6364)">
<path fill-rule="evenodd" clip-rule="evenodd" d="M1238.36 30.877C1239.77 30.877 1241.16 30.3594 1242.17 29.453C1243.17 28.549 1243.75 27.2976 1243.75 26.017C1243.75 24.7388 1243.17 23.4849 1242.17 22.581C1241.16 21.6746 1239.77 21.157 1238.36 21.157C1236.93 21.157 1235.55 21.6746 1234.54 22.581C1233.54 23.4849 1232.96 24.7388 1232.96 26.017C1232.96 27.2976 1233.54 28.549 1234.54 29.453C1235.55 30.3594 1236.93 30.877 1238.36 30.877" fill="#444444" fill-opacity="0.13"/>
</g>
<path fill-rule="evenodd" clip-rule="evenodd" d="M1042.05 51.1956C1043.38 51.1956 1044.69 50.7104 1045.63 49.8629C1046.57 49.0132 1047.11 47.8399 1047.11 46.6394C1047.11 45.4411 1046.57 44.2656 1045.63 43.4181C1044.69 42.5684 1043.38 42.0831 1042.05 42.0831C1040.72 42.0831 1039.42 42.5684 1038.48 43.4181C1037.54 44.2656 1037 45.4411 1037 46.6394C1037 47.8399 1037.54 49.0132 1038.48 49.8629C1039.42 50.7104 1040.72 51.1956 1042.05 51.1956" fill="#444444" fill-opacity="0.13"/>
<path fill-rule="evenodd" clip-rule="evenodd" d="M1097.65 51.1956H1097.67C1100.46 51.1956 1102.71 49.1544 1102.71 46.6394C1102.71 44.1243 1100.46 42.0831 1097.67 42.0831H1097.65C1094.86 42.0831 1092.6 44.1243 1092.6 46.6394C1092.6 49.1544 1094.86 51.1956 1097.65 51.1956" fill="#444444" fill-opacity="0.13"/>
<path fill-rule="evenodd" clip-rule="evenodd" d="M1070.69 51.1956H1070.71C1073.5 51.1956 1075.75 49.1544 1075.75 46.6394C1075.75 44.1243 1073.5 42.0831 1070.71 42.0831H1070.69C1067.9 42.0831 1065.64 44.1243 1065.64 46.6394C1065.64 49.1544 1067.9 51.1956 1070.69 51.1956" fill="#444444" fill-opacity="0.13"/>
<path fill-rule="evenodd" clip-rule="evenodd" d="M1126.3 51.1956C1127.63 51.1956 1128.94 50.7104 1129.88 49.8629C1130.82 49.0132 1131.36 47.8399 1131.36 46.6394C1131.36 45.4411 1130.82 44.2656 1129.88 43.4181C1128.94 42.5684 1127.63 42.0831 1126.3 42.0831C1124.97 42.0831 1123.67 42.5684 1122.73 43.4181C1121.79 44.2656 1121.25 45.4411 1121.25 46.6394C1121.25 47.8399 1121.79 49.0132 1122.73 49.8629C1123.67 50.7104 1124.97 51.1956 1126.3 51.1956" fill="#444444" fill-opacity="0.13"/>
<path fill-rule="evenodd" clip-rule="evenodd" d="M1154.95 51.1956C1156.28 51.1956 1157.58 50.7104 1158.52 49.8629C1159.46 49.0132 1160 47.8399 1160 46.6394C1160 45.4411 1159.46 44.2656 1158.52 43.4181C1157.58 42.5684 1156.28 42.0831 1154.95 42.0831C1153.62 42.0831 1152.31 42.5684 1151.37 43.4181C1150.43 44.2656 1149.89 45.4411 1149.89 46.6394C1149.89 47.8399 1150.43 49.0132 1151.37 49.8629C1152.31 50.7104 1153.62 51.1956 1154.95 51.1956" fill="#444444" fill-opacity="0.13"/>
<path fill-rule="evenodd" clip-rule="evenodd" d="M1210.54 51.1956H1210.56C1213.35 51.1956 1215.6 49.1544 1215.6 46.6394C1215.6 44.1243 1213.35 42.0831 1210.56 42.0831H1210.54C1207.75 42.0831 1205.5 44.1243 1205.5 46.6394C1205.5 49.1544 1207.75 51.1956 1210.54 51.1956" fill="#444444" fill-opacity="0.13"/>
<path fill-rule="evenodd" clip-rule="evenodd" d="M1181.89 51.1956H1181.92C1184.7 51.1956 1186.96 49.1544 1186.96 46.6394C1186.96 44.1243 1184.7 42.0831 1181.92 42.0831H1181.89C1179.11 42.0831 1176.85 44.1243 1176.85 46.6394C1176.85 49.1544 1179.11 51.1956 1181.89 51.1956" fill="#444444" fill-opacity="0.13"/>
<mask id="mask26_448_6364" style="mask-type:luminance" maskUnits="userSpaceOnUse" x="1232" y="41" width="12" height="11">
<path fill-rule="evenodd" clip-rule="evenodd" d="M1232.96 41.4239H1243.75V51.1439H1232.96V41.4239Z" fill="white"/>
</mask>
<g mask="url(#mask26_448_6364)">
<path fill-rule="evenodd" clip-rule="evenodd" d="M1238.36 51.1439C1239.77 51.1439 1241.16 50.6263 1242.17 49.7223C1243.17 48.8159 1243.75 47.5645 1243.75 46.2839C1243.75 45.0057 1243.17 43.7518 1242.17 42.8479C1241.16 41.9415 1239.77 41.4239 1238.36 41.4239C1236.93 41.4239 1235.55 41.9415 1234.54 42.8479C1233.54 43.7518 1232.96 45.0057 1232.96 46.2839C1232.96 47.5645 1233.54 48.8159 1234.54 49.7223C1235.55 50.6263 1236.93 51.1439 1238.36 51.1439" fill="#444444" fill-opacity="0.13"/>
</g>
<path fill-rule="evenodd" clip-rule="evenodd" d="M1042.05 70.9394C1043.38 70.9394 1044.69 70.4541 1045.63 69.6044C1046.57 68.7569 1047.11 67.5837 1047.11 66.3831C1047.11 65.1848 1046.57 64.0093 1045.63 63.1619C1044.69 62.3121 1043.38 61.8269 1042.05 61.8269C1040.72 61.8269 1039.42 62.3121 1038.48 63.1619C1037.54 64.0093 1037 65.1848 1037 66.3831C1037 67.5837 1037.54 68.7569 1038.48 69.6044C1039.42 70.4541 1040.72 70.9394 1042.05 70.9394" fill="#444444" fill-opacity="0.13"/>
<path fill-rule="evenodd" clip-rule="evenodd" d="M1097.65 70.9394H1097.67C1100.46 70.9394 1102.71 68.8982 1102.71 66.3831C1102.71 63.8681 1100.46 61.8269 1097.67 61.8269H1097.65C1094.86 61.8269 1092.6 63.8681 1092.6 66.3831C1092.6 68.8982 1094.86 70.9394 1097.65 70.9394" fill="#444444" fill-opacity="0.13"/>
<path fill-rule="evenodd" clip-rule="evenodd" d="M1070.69 70.9394H1070.71C1073.5 70.9394 1075.75 68.8982 1075.75 66.3831C1075.75 63.8681 1073.5 61.8269 1070.71 61.8269H1070.69C1067.9 61.8269 1065.64 63.8681 1065.64 66.3831C1065.64 68.8982 1067.9 70.9394 1070.69 70.9394" fill="#444444" fill-opacity="0.13"/>
<path fill-rule="evenodd" clip-rule="evenodd" d="M1126.3 70.9394C1127.63 70.9394 1128.94 70.4541 1129.88 69.6044C1130.82 68.7569 1131.36 67.5837 1131.36 66.3831C1131.36 65.1848 1130.82 64.0093 1129.88 63.1619C1128.94 62.3121 1127.63 61.8269 1126.3 61.8269C1124.97 61.8269 1123.67 62.3121 1122.73 63.1619C1121.79 64.0093 1121.25 65.1848 1121.25 66.3831C1121.25 67.5837 1121.79 68.7569 1122.73 69.6044C1123.67 70.4541 1124.97 70.9394 1126.3 70.9394" fill="#444444" fill-opacity="0.13"/>
<path fill-rule="evenodd" clip-rule="evenodd" d="M1154.95 70.9394C1156.28 70.9394 1157.58 70.4541 1158.52 69.6044C1159.46 68.7569 1160 67.5837 1160 66.3831C1160 65.1848 1159.46 64.0093 1158.52 63.1619C1157.58 62.3121 1156.28 61.8269 1154.95 61.8269C1153.62 61.8269 1152.31 62.3121 1151.37 63.1619C1150.43 64.0093 1149.89 65.1848 1149.89 66.3831C1149.89 67.5837 1150.43 68.7569 1151.37 69.6044C1152.31 70.4541 1153.62 70.9394 1154.95 70.9394" fill="#444444" fill-opacity="0.13"/>
<path fill-rule="evenodd" clip-rule="evenodd" d="M1210.54 70.9394H1210.56C1213.35 70.9394 1215.6 68.8982 1215.6 66.3831C1215.6 63.8681 1213.35 61.8269 1210.56 61.8269H1210.54C1207.75 61.8269 1205.5 63.8681 1205.5 66.3831C1205.5 68.8982 1207.75 70.9394 1210.54 70.9394" fill="#444444" fill-opacity="0.13"/>
<path fill-rule="evenodd" clip-rule="evenodd" d="M1181.89 70.9394H1181.92C1184.7 70.9394 1186.96 68.8982 1186.96 66.3831C1186.96 63.8681 1184.7 61.8269 1181.92 61.8269H1181.89C1179.11 61.8269 1176.85 63.8681 1176.85 66.3831C1176.85 68.8982 1179.11 70.9394 1181.89 70.9394" fill="#444444" fill-opacity="0.13"/>
<mask id="mask27_448_6364" style="mask-type:luminance" maskUnits="userSpaceOnUse" x="1232" y="61" width="12" height="11">
<path fill-rule="evenodd" clip-rule="evenodd" d="M1232.96 61.6908H1243.75V71.4108H1232.96V61.6908Z" fill="white"/>
</mask>
<g mask="url(#mask27_448_6364)">
<path fill-rule="evenodd" clip-rule="evenodd" d="M1238.36 71.4108C1239.77 71.4108 1241.16 70.8932 1242.17 69.9868C1243.17 69.0828 1243.75 67.8314 1243.75 66.5508C1243.75 65.2726 1243.17 64.0187 1242.17 63.1148C1241.16 62.2084 1239.77 61.6908 1238.36 61.6908C1236.93 61.6908 1235.55 62.2084 1234.54 63.1148C1233.54 64.0187 1232.96 65.2726 1232.96 66.5508C1232.96 67.8314 1233.54 69.0828 1234.54 69.9868C1235.55 70.8932 1236.93 71.4108 1238.36 71.4108" fill="#444444" fill-opacity="0.13"/>
</g>
<path fill-rule="evenodd" clip-rule="evenodd" d="M1042.05 90.6831C1043.38 90.6831 1044.69 90.1978 1045.63 89.3504C1046.57 88.5006 1047.11 87.3274 1047.11 86.1268C1047.11 84.9285 1046.57 83.753 1045.63 82.9056C1044.69 82.0558 1043.38 81.5706 1042.05 81.5706C1040.72 81.5706 1039.42 82.0558 1038.48 82.9056C1037.54 83.753 1037 84.9285 1037 86.1268C1037 87.3274 1037.54 88.5006 1038.48 89.3504C1039.42 90.1978 1040.72 90.6831 1042.05 90.6831" fill="#444444" fill-opacity="0.13"/>
<path fill-rule="evenodd" clip-rule="evenodd" d="M1097.65 90.6831H1097.67C1100.46 90.6831 1102.71 88.6442 1102.71 86.1268C1102.71 83.6118 1100.46 81.5706 1097.67 81.5706H1097.65C1094.86 81.5706 1092.6 83.6118 1092.6 86.1268C1092.6 88.6442 1094.86 90.6831 1097.65 90.6831" fill="#444444" fill-opacity="0.13"/>
<path fill-rule="evenodd" clip-rule="evenodd" d="M1070.69 90.6831H1070.71C1073.5 90.6831 1075.75 88.6442 1075.75 86.1268C1075.75 83.6118 1073.5 81.5706 1070.71 81.5706H1070.69C1067.9 81.5706 1065.64 83.6118 1065.64 86.1268C1065.64 88.6442 1067.9 90.6831 1070.69 90.6831" fill="#444444" fill-opacity="0.13"/>
<path fill-rule="evenodd" clip-rule="evenodd" d="M1126.3 90.6831C1127.63 90.6831 1128.94 90.1978 1129.88 89.3504C1130.82 88.5006 1131.36 87.3274 1131.36 86.1268C1131.36 84.9285 1130.82 83.753 1129.88 82.9056C1128.94 82.0558 1127.63 81.5706 1126.3 81.5706C1124.97 81.5706 1123.67 82.0558 1122.73 82.9056C1121.79 83.753 1121.25 84.9285 1121.25 86.1268C1121.25 87.3274 1121.79 88.5006 1122.73 89.3504C1123.67 90.1978 1124.97 90.6831 1126.3 90.6831" fill="#444444" fill-opacity="0.13"/>
<path fill-rule="evenodd" clip-rule="evenodd" d="M1154.95 90.6831C1156.28 90.6831 1157.58 90.1978 1158.52 89.3504C1159.46 88.5006 1160 87.3274 1160 86.1268C1160 84.9285 1159.46 83.753 1158.52 82.9056C1157.58 82.0558 1156.28 81.5706 1154.95 81.5706C1153.62 81.5706 1152.31 82.0558 1151.37 82.9056C1150.43 83.753 1149.89 84.9285 1149.89 86.1268C1149.89 87.3274 1150.43 88.5006 1151.37 89.3504C1152.31 90.1978 1153.62 90.6831 1154.95 90.6831" fill="#444444" fill-opacity="0.13"/>
<path fill-rule="evenodd" clip-rule="evenodd" d="M1210.54 90.6831H1210.56C1213.35 90.6831 1215.6 88.6442 1215.6 86.1268C1215.6 83.6118 1213.35 81.5706 1210.56 81.5706H1210.54C1207.75 81.5706 1205.5 83.6118 1205.5 86.1268C1205.5 88.6442 1207.75 90.6831 1210.54 90.6831" fill="#444444" fill-opacity="0.13"/>
<path fill-rule="evenodd" clip-rule="evenodd" d="M1181.89 90.6831H1181.92C1184.7 90.6831 1186.96 88.6442 1186.96 86.1268C1186.96 83.6118 1184.7 81.5706 1181.92 81.5706H1181.89C1179.11 81.5706 1176.85 83.6118 1176.85 86.1268C1176.85 88.6442 1179.11 90.6831 1181.89 90.6831" fill="#444444" fill-opacity="0.13"/>
<mask id="mask28_448_6364" style="mask-type:luminance" maskUnits="userSpaceOnUse" x="1232" y="81" width="12" height="11">
<path fill-rule="evenodd" clip-rule="evenodd" d="M1232.96 81.9579H1243.75V91.6779H1232.96V81.9579Z" fill="white"/>
</mask>
<g mask="url(#mask28_448_6364)">
<path fill-rule="evenodd" clip-rule="evenodd" d="M1238.36 91.6779C1239.77 91.6779 1241.16 91.1603 1242.17 90.2564C1243.17 89.35 1243.75 88.0985 1243.75 86.8179C1243.75 85.5397 1243.17 84.2859 1242.17 83.3819C1241.16 82.4755 1239.77 81.9579 1238.36 81.9579C1236.93 81.9579 1235.55 82.4755 1234.54 83.3819C1233.54 84.2859 1232.96 85.5397 1232.96 86.8179C1232.96 88.0985 1233.54 89.35 1234.54 90.2564C1235.55 91.1603 1236.93 91.6779 1238.36 91.6779" fill="#444444" fill-opacity="0.13"/>
</g>
<mask id="mask29_448_6364" style="mask-type:luminance" maskUnits="userSpaceOnUse" x="1037" y="101" width="11" height="10">
<path fill-rule="evenodd" clip-rule="evenodd" d="M1037 101.315H1047.11V110.427H1037V101.315Z" fill="white"/>
</mask>
<g mask="url(#mask29_448_6364)">
<path fill-rule="evenodd" clip-rule="evenodd" d="M1042.06 110.427C1043.39 110.427 1044.69 109.942 1045.63 109.092C1046.57 108.245 1047.11 107.069 1047.11 105.871C1047.11 104.67 1046.57 103.497 1045.63 102.647C1044.69 101.8 1043.39 101.315 1042.06 101.315C1040.72 101.315 1039.42 101.8 1038.48 102.647C1037.54 103.497 1037 104.67 1037 105.871C1037 107.069 1037.54 108.245 1038.48 109.092C1039.42 109.942 1040.72 110.427 1042.06 110.427" fill="#444444" fill-opacity="0.13"/>
</g>
<mask id="mask30_448_6364" style="mask-type:luminance" maskUnits="userSpaceOnUse" x="1092" y="101" width="12" height="10">
<path fill-rule="evenodd" clip-rule="evenodd" d="M1092.59 101.315H1103.4V110.427H1092.59V101.315Z" fill="white"/>
</mask>
<g mask="url(#mask30_448_6364)">
<path fill-rule="evenodd" clip-rule="evenodd" d="M1097.98 110.427H1098.01C1100.99 110.427 1103.4 108.386 1103.4 105.871C1103.4 103.354 1100.99 101.315 1098.01 101.315H1097.98C1095.01 101.315 1092.59 103.354 1092.59 105.871C1092.59 108.386 1095.01 110.427 1097.98 110.427" fill="#444444" fill-opacity="0.13"/>
</g>
<mask id="mask31_448_6364" style="mask-type:luminance" maskUnits="userSpaceOnUse" x="1064" y="101" width="12" height="10">
<path fill-rule="evenodd" clip-rule="evenodd" d="M1064.79 101.315H1075.6V110.427H1064.79V101.315Z" fill="white"/>
</mask>
<g mask="url(#mask31_448_6364)">
<path fill-rule="evenodd" clip-rule="evenodd" d="M1070.18 110.427H1070.21C1073.18 110.427 1075.6 108.386 1075.6 105.871C1075.6 103.354 1073.18 101.315 1070.21 101.315H1070.18C1067.2 101.315 1064.79 103.354 1064.79 105.871C1064.79 108.386 1067.2 110.427 1070.18 110.427" fill="#444444" fill-opacity="0.13"/>
</g>
<mask id="mask32_448_6364" style="mask-type:luminance" maskUnits="userSpaceOnUse" x="1120" y="101" width="12" height="10">
<path fill-rule="evenodd" clip-rule="evenodd" d="M1120.41 101.315H1131.19V110.427H1120.41V101.315Z" fill="white"/>
</mask>
<g mask="url(#mask32_448_6364)">
<path fill-rule="evenodd" clip-rule="evenodd" d="M1125.8 110.427C1127.22 110.427 1128.61 109.942 1129.61 109.092C1130.62 108.245 1131.19 107.069 1131.19 105.871C1131.19 104.67 1130.62 103.497 1129.61 102.647C1128.61 101.8 1127.22 101.315 1125.8 101.315C1124.38 101.315 1122.99 101.8 1121.98 102.647C1120.98 103.497 1120.41 104.67 1120.41 105.871C1120.41 107.069 1120.98 108.245 1121.98 109.092C1122.99 109.942 1124.38 110.427 1125.8 110.427" fill="#444444" fill-opacity="0.13"/>
</g>
<mask id="mask33_448_6364" style="mask-type:luminance" maskUnits="userSpaceOnUse" x="1148" y="101" width="12" height="10">
<path fill-rule="evenodd" clip-rule="evenodd" d="M1148.88 101.315H1159.67V110.427H1148.88V101.315Z" fill="white"/>
</mask>
<g mask="url(#mask33_448_6364)">
<path fill-rule="evenodd" clip-rule="evenodd" d="M1154.27 110.427C1155.7 110.427 1157.08 109.942 1158.09 109.092C1159.09 108.245 1159.67 107.069 1159.67 105.871C1159.67 104.67 1159.09 103.497 1158.09 102.647C1157.08 101.8 1155.7 101.315 1154.27 101.315C1152.86 101.315 1151.47 101.8 1150.46 102.647C1149.46 103.497 1148.88 104.67 1148.88 105.871C1148.88 107.069 1149.46 108.245 1150.46 109.092C1151.47 109.942 1152.86 110.427 1154.27 110.427" fill="#444444" fill-opacity="0.13"/>
</g>
<mask id="mask34_448_6364" style="mask-type:luminance" maskUnits="userSpaceOnUse" x="1204" y="101" width="12" height="10">
<path fill-rule="evenodd" clip-rule="evenodd" d="M1204.47 101.315H1215.28V110.427H1204.47V101.315Z" fill="white"/>
</mask>
<g mask="url(#mask34_448_6364)">
<path fill-rule="evenodd" clip-rule="evenodd" d="M1209.87 110.427H1209.89C1212.87 110.427 1215.28 108.386 1215.28 105.871C1215.28 103.354 1212.87 101.315 1209.89 101.315H1209.87C1206.89 101.315 1204.47 103.354 1204.47 105.871C1204.47 108.386 1206.89 110.427 1209.87 110.427" fill="#444444" fill-opacity="0.13"/>
</g>
<mask id="mask35_448_6364" style="mask-type:luminance" maskUnits="userSpaceOnUse" x="1176" y="101" width="12" height="10">
<path fill-rule="evenodd" clip-rule="evenodd" d="M1176.67 101.315H1187.48V110.427H1176.67V101.315Z" fill="white"/>
</mask>
<g mask="url(#mask35_448_6364)">
<path fill-rule="evenodd" clip-rule="evenodd" d="M1182.06 110.427H1182.09C1185.07 110.427 1187.48 108.386 1187.48 105.871C1187.48 103.354 1185.07 101.315 1182.09 101.315H1182.06C1179.09 101.315 1176.67 103.354 1176.67 105.871C1176.67 108.386 1179.09 110.427 1182.06 110.427" fill="#444444" fill-opacity="0.13"/>
</g>
<mask id="mask36_448_6364" style="mask-type:luminance" maskUnits="userSpaceOnUse" x="1232" y="101" width="12" height="10">
<path fill-rule="evenodd" clip-rule="evenodd" d="M1232.96 101.315H1243.75V110.427H1232.96V101.315Z" fill="white"/>
</mask>
<g mask="url(#mask36_448_6364)">
<path fill-rule="evenodd" clip-rule="evenodd" d="M1238.36 110.427C1239.77 110.427 1241.16 109.942 1242.17 109.092C1243.17 108.245 1243.75 107.069 1243.75 105.871C1243.75 104.67 1243.17 103.497 1242.17 102.647C1241.16 101.8 1239.77 101.315 1238.36 101.315C1236.93 101.315 1235.55 101.8 1234.54 102.647C1233.54 103.497 1232.96 104.67 1232.96 105.871C1232.96 107.069 1233.54 108.245 1234.54 109.092C1235.55 109.942 1236.93 110.427 1238.36 110.427" fill="#444444" fill-opacity="0.13"/>
</g>
<path fill-rule="evenodd" clip-rule="evenodd" d="M1264.31 10.1893C1265.64 10.1893 1266.94 9.70406 1267.88 8.85432C1268.82 8.00686 1269.36 6.83363 1269.36 5.63306C1269.36 4.43249 1268.82 3.25925 1267.88 2.41179C1266.94 1.56205 1265.64 1.07681 1264.31 1.07681C1262.98 1.07681 1261.67 1.56205 1260.73 2.41179C1259.79 3.25925 1259.25 4.43249 1259.25 5.63306C1259.25 6.83363 1259.79 8.00686 1260.73 8.85432C1261.67 9.70406 1262.98 10.1893 1264.31 10.1893" fill="#676767" fill-opacity="0.09"/>
<path fill-rule="evenodd" clip-rule="evenodd" d="M1319.9 10.1893H1319.92C1322.71 10.1893 1324.97 8.14811 1324.97 5.63306C1324.97 3.11801 1322.71 1.07681 1319.92 1.07681H1319.9C1317.12 1.07681 1314.86 3.11801 1314.86 5.63306C1314.86 8.14811 1317.12 10.1893 1319.9 10.1893" fill="#676767" fill-opacity="0.09"/>
<path fill-rule="evenodd" clip-rule="evenodd" d="M1292.94 10.1893H1292.96C1295.75 10.1893 1298.01 8.14811 1298.01 5.63306C1298.01 3.11801 1295.75 1.07681 1292.96 1.07681H1292.94C1290.16 1.07681 1287.9 3.11801 1287.9 5.63306C1287.9 8.14811 1290.16 10.1893 1292.94 10.1893" fill="#676767" fill-opacity="0.09"/>
<path fill-rule="evenodd" clip-rule="evenodd" d="M1348.55 10.1893C1349.88 10.1893 1351.19 9.70406 1352.13 8.85432C1353.07 8.00686 1353.61 6.83363 1353.61 5.63306C1353.61 4.43249 1353.07 3.25925 1352.13 2.41179C1351.19 1.56205 1349.88 1.07681 1348.55 1.07681C1347.22 1.07681 1345.92 1.56205 1344.98 2.41179C1344.04 3.25925 1343.5 4.43249 1343.5 5.63306C1343.5 6.83363 1344.04 8.00686 1344.98 8.85432C1345.92 9.70406 1347.22 10.1893 1348.55 10.1893" fill="#676767" fill-opacity="0.09"/>
<path fill-rule="evenodd" clip-rule="evenodd" d="M1264.31 31.4518C1265.64 31.4518 1266.94 30.9665 1267.88 30.1168C1268.82 29.2693 1269.36 28.0961 1269.36 26.8955C1269.36 25.6972 1268.82 24.5217 1267.88 23.6743C1266.94 22.8245 1265.64 22.3393 1264.31 22.3393C1262.98 22.3393 1261.67 22.8245 1260.73 23.6743C1259.79 24.5217 1259.25 25.6972 1259.25 26.8955C1259.25 28.0961 1259.79 29.2693 1260.73 30.1168C1261.67 30.9665 1262.98 31.4518 1264.31 31.4518" fill="#676767" fill-opacity="0.09"/>
<path fill-rule="evenodd" clip-rule="evenodd" d="M1319.9 31.4518H1319.92C1322.71 31.4518 1324.97 29.4106 1324.97 26.8955C1324.97 24.3805 1322.71 22.3393 1319.92 22.3393H1319.9C1317.12 22.3393 1314.86 24.3805 1314.86 26.8955C1314.86 29.4106 1317.12 31.4518 1319.9 31.4518" fill="#676767" fill-opacity="0.09"/>
<path fill-rule="evenodd" clip-rule="evenodd" d="M1292.94 31.4518H1292.96C1295.75 31.4518 1298.01 29.4106 1298.01 26.8955C1298.01 24.3805 1295.75 22.3393 1292.96 22.3393H1292.94C1290.16 22.3393 1287.9 24.3805 1287.9 26.8955C1287.9 29.4106 1290.16 31.4518 1292.94 31.4518" fill="#676767" fill-opacity="0.09"/>
<path fill-rule="evenodd" clip-rule="evenodd" d="M1348.55 31.4518C1349.88 31.4518 1351.19 30.9665 1352.13 30.1168C1353.07 29.2693 1353.61 28.0961 1353.61 26.8955C1353.61 25.6972 1353.07 24.5217 1352.13 23.6743C1351.19 22.8245 1349.88 22.3393 1348.55 22.3393C1347.22 22.3393 1345.92 22.8245 1344.98 23.6743C1344.04 24.5217 1343.5 25.6972 1343.5 26.8955C1343.5 28.0961 1344.04 29.2693 1344.98 30.1168C1345.92 30.9665 1347.22 31.4518 1348.55 31.4518" fill="#676767" fill-opacity="0.09"/>
<path fill-rule="evenodd" clip-rule="evenodd" d="M1264.31 51.1955C1265.64 51.1955 1266.94 50.7103 1267.88 49.8628C1268.82 49.0131 1269.36 47.8398 1269.36 46.6393C1269.36 45.441 1268.82 44.2654 1267.88 43.418C1266.94 42.5682 1265.64 42.083 1264.31 42.083C1262.98 42.083 1261.67 42.5682 1260.73 43.418C1259.79 44.2654 1259.25 45.441 1259.25 46.6393C1259.25 47.8398 1259.79 49.0131 1260.73 49.8628C1261.67 50.7103 1262.98 51.1955 1264.31 51.1955" fill="#676767" fill-opacity="0.09"/>
<path fill-rule="evenodd" clip-rule="evenodd" d="M1319.9 51.1955H1319.92C1322.71 51.1955 1324.97 49.1543 1324.97 46.6393C1324.97 44.1242 1322.71 42.083 1319.92 42.083H1319.9C1317.12 42.083 1314.86 44.1242 1314.86 46.6393C1314.86 49.1543 1317.12 51.1955 1319.9 51.1955" fill="#676767" fill-opacity="0.09"/>
<path fill-rule="evenodd" clip-rule="evenodd" d="M1292.94 51.1955H1292.96C1295.75 51.1955 1298.01 49.1543 1298.01 46.6393C1298.01 44.1242 1295.75 42.083 1292.96 42.083H1292.94C1290.16 42.083 1287.9 44.1242 1287.9 46.6393C1287.9 49.1543 1290.16 51.1955 1292.94 51.1955" fill="#676767" fill-opacity="0.09"/>
<path fill-rule="evenodd" clip-rule="evenodd" d="M1348.55 51.1955C1349.88 51.1955 1351.19 50.7103 1352.13 49.8628C1353.07 49.0131 1353.61 47.8398 1353.61 46.6393C1353.61 45.441 1353.07 44.2654 1352.13 43.418C1351.19 42.5682 1349.88 42.083 1348.55 42.083C1347.22 42.083 1345.92 42.5682 1344.98 43.418C1344.04 44.2654 1343.5 45.441 1343.5 46.6393C1343.5 47.8398 1344.04 49.0131 1344.98 49.8628C1345.92 50.7103 1347.22 51.1955 1348.55 51.1955" fill="#676767" fill-opacity="0.09"/>
<path fill-rule="evenodd" clip-rule="evenodd" d="M1264.31 70.9392C1265.64 70.9392 1266.94 70.454 1267.88 69.6043C1268.82 68.7568 1269.36 67.5836 1269.36 66.383C1269.36 65.1847 1268.82 64.0092 1267.88 63.1617C1266.94 62.312 1265.64 61.8268 1264.31 61.8268C1262.98 61.8268 1261.67 62.312 1260.73 63.1617C1259.79 64.0092 1259.25 65.1847 1259.25 66.383C1259.25 67.5836 1259.79 68.7568 1260.73 69.6043C1261.67 70.454 1262.98 70.9392 1264.31 70.9392" fill="#676767" fill-opacity="0.09"/>
<path fill-rule="evenodd" clip-rule="evenodd" d="M1319.9 70.9392H1319.92C1322.71 70.9392 1324.97 68.898 1324.97 66.383C1324.97 63.8679 1322.71 61.8268 1319.92 61.8268H1319.9C1317.12 61.8268 1314.86 63.8679 1314.86 66.383C1314.86 68.898 1317.12 70.9392 1319.9 70.9392" fill="#676767" fill-opacity="0.09"/>
<path fill-rule="evenodd" clip-rule="evenodd" d="M1292.94 70.9392H1292.96C1295.75 70.9392 1298.01 68.898 1298.01 66.383C1298.01 63.8679 1295.75 61.8268 1292.96 61.8268H1292.94C1290.16 61.8268 1287.9 63.8679 1287.9 66.383C1287.9 68.898 1290.16 70.9392 1292.94 70.9392" fill="#676767" fill-opacity="0.09"/>
<path fill-rule="evenodd" clip-rule="evenodd" d="M1348.55 70.9392C1349.88 70.9392 1351.19 70.454 1352.13 69.6043C1353.07 68.7568 1353.61 67.5836 1353.61 66.383C1353.61 65.1847 1353.07 64.0092 1352.13 63.1617C1351.19 62.312 1349.88 61.8268 1348.55 61.8268C1347.22 61.8268 1345.92 62.312 1344.98 63.1617C1344.04 64.0092 1343.5 65.1847 1343.5 66.383C1343.5 67.5836 1344.04 68.7568 1344.98 69.6043C1345.92 70.454 1347.22 70.9392 1348.55 70.9392" fill="#676767" fill-opacity="0.09"/>
<path fill-rule="evenodd" clip-rule="evenodd" d="M1264.31 90.683C1265.64 90.683 1266.94 90.1977 1267.88 89.3503C1268.82 88.5005 1269.36 87.3273 1269.36 86.1267C1269.36 84.9284 1268.82 83.7529 1267.88 82.9054C1266.94 82.0557 1265.64 81.5705 1264.31 81.5705C1262.98 81.5705 1261.67 82.0557 1260.73 82.9054C1259.79 83.7529 1259.25 84.9284 1259.25 86.1267C1259.25 87.3273 1259.79 88.5005 1260.73 89.3503C1261.67 90.1977 1262.98 90.683 1264.31 90.683" fill="#676767" fill-opacity="0.09"/>
<path fill-rule="evenodd" clip-rule="evenodd" d="M1319.9 90.683H1319.92C1322.71 90.683 1324.97 88.644 1324.97 86.1267C1324.97 83.6117 1322.71 81.5705 1319.92 81.5705H1319.9C1317.12 81.5705 1314.86 83.6117 1314.86 86.1267C1314.86 88.644 1317.12 90.683 1319.9 90.683" fill="#676767" fill-opacity="0.09"/>
<path fill-rule="evenodd" clip-rule="evenodd" d="M1292.94 90.683H1292.96C1295.75 90.683 1298.01 88.644 1298.01 86.1267C1298.01 83.6117 1295.75 81.5705 1292.96 81.5705H1292.94C1290.16 81.5705 1287.9 83.6117 1287.9 86.1267C1287.9 88.644 1290.16 90.683 1292.94 90.683" fill="#676767" fill-opacity="0.09"/>
<path fill-rule="evenodd" clip-rule="evenodd" d="M1348.55 90.683C1349.88 90.683 1351.19 90.1977 1352.13 89.3503C1353.07 88.5005 1353.61 87.3273 1353.61 86.1267C1353.61 84.9284 1353.07 83.7529 1352.13 82.9054C1351.19 82.0557 1349.88 81.5705 1348.55 81.5705C1347.22 81.5705 1345.92 82.0557 1344.98 82.9054C1344.04 83.7529 1343.5 84.9284 1343.5 86.1267C1343.5 87.3273 1344.04 88.5005 1344.98 89.3503C1345.92 90.1977 1347.22 90.683 1348.55 90.683" fill="#676767" fill-opacity="0.09"/>
<mask id="mask37_448_6364" style="mask-type:luminance" maskUnits="userSpaceOnUse" x="1259" y="101" width="11" height="10">
<path fill-rule="evenodd" clip-rule="evenodd" d="M1259.25 101.315H1269.36V110.427H1259.25V101.315Z" fill="white"/>
</mask>
<g mask="url(#mask37_448_6364)">
<path fill-rule="evenodd" clip-rule="evenodd" d="M1264.31 110.427C1265.64 110.427 1266.94 109.942 1267.88 109.092C1268.83 108.245 1269.36 107.069 1269.36 105.871C1269.36 104.67 1268.83 103.497 1267.88 102.647C1266.94 101.8 1265.64 101.315 1264.31 101.315C1262.98 101.315 1261.68 101.8 1260.73 102.647C1259.79 103.497 1259.25 104.67 1259.25 105.871C1259.25 107.069 1259.79 108.245 1260.73 109.092C1261.68 109.942 1262.98 110.427 1264.31 110.427" fill="#676767" fill-opacity="0.09"/>
</g>
<mask id="mask38_448_6364" style="mask-type:luminance" maskUnits="userSpaceOnUse" x="1314" y="101" width="12" height="10">
<path fill-rule="evenodd" clip-rule="evenodd" d="M1314.84 101.315H1325.65V110.427H1314.84V101.315Z" fill="white"/>
</mask>
<g mask="url(#mask38_448_6364)">
<path fill-rule="evenodd" clip-rule="evenodd" d="M1320.24 110.427H1320.26C1323.24 110.427 1325.65 108.386 1325.65 105.871C1325.65 103.354 1323.24 101.315 1320.26 101.315H1320.24C1317.26 101.315 1314.84 103.354 1314.84 105.871C1314.84 108.386 1317.26 110.427 1320.24 110.427" fill="#676767" fill-opacity="0.09"/>
</g>
<mask id="mask39_448_6364" style="mask-type:luminance" maskUnits="userSpaceOnUse" x="1287" y="101" width="11" height="10">
<path fill-rule="evenodd" clip-rule="evenodd" d="M1287.04 101.315H1297.85V110.427H1287.04V101.315Z" fill="white"/>
</mask>
<g mask="url(#mask39_448_6364)">
<path fill-rule="evenodd" clip-rule="evenodd" d="M1292.43 110.427H1292.46C1295.44 110.427 1297.85 108.386 1297.85 105.871C1297.85 103.354 1295.44 101.315 1292.46 101.315H1292.43C1289.46 101.315 1287.04 103.354 1287.04 105.871C1287.04 108.386 1289.46 110.427 1292.43 110.427" fill="#676767" fill-opacity="0.09"/>
</g>
<mask id="mask40_448_6364" style="mask-type:luminance" maskUnits="userSpaceOnUse" x="1342" y="101" width="12" height="10">
<path fill-rule="evenodd" clip-rule="evenodd" d="M1342.66 101.315H1353.44V110.427H1342.66V101.315Z" fill="white"/>
</mask>
<g mask="url(#mask40_448_6364)">
<path fill-rule="evenodd" clip-rule="evenodd" d="M1348.05 110.427C1349.47 110.427 1350.86 109.942 1351.86 109.092C1352.87 108.245 1353.44 107.069 1353.44 105.871C1353.44 104.67 1352.87 103.497 1351.86 102.647C1350.86 101.8 1349.47 101.315 1348.05 101.315C1346.63 101.315 1345.24 101.8 1344.24 102.647C1343.23 103.497 1342.66 104.67 1342.66 105.871C1342.66 107.069 1343.23 108.245 1344.24 109.092C1345.24 109.942 1346.63 110.427 1348.05 110.427" fill="#676767" fill-opacity="0.09"/>
</g>
</g>
<defs>
<radialGradient id="paint0_radial_448_6364" cx="0" cy="0" r="1" gradientUnits="userSpaceOnUse" gradientTransform="translate(684.234 138) rotate(-90) scale(122.5 1270.27)">
<stop stop-color="#7A7A7A"/>
<stop offset="0.396" stop-color="#2F2F2F" stop-opacity="0.389"/>
<stop offset="1" stop-opacity="0"/>
</radialGradient>
<clipPath id="clip0_448_6364">
<rect width="1360" height="138" fill="white"/>
</clipPath>
</defs>
</svg>
