<svg width="501" height="114" viewBox="0 0 501 114" fill="none" xmlns="http://www.w3.org/2000/svg">
<g filter="url(#filter0_d_874_11389)">
<path d="M389.338 14.1595L405.215 27.6854H431.29H457.426V49.951V72.1646L473.303 85.6905L489.18 99.2163V49.899V0.63369H431.351H373.461L389.338 14.1595Z" fill="white"/>
<path d="M22.032 48.0781C11.4677 70.4478 2.30794 89.7481 1.75835 90.9967L0.65918 93.2336H14.0324H27.3446L29.3598 88.6557C30.459 86.1586 32.1688 82.3089 33.1458 80.072L34.9778 76.0662H57.4497H79.9217L84.0741 84.6499L88.2265 93.2336H101.844H115.401L113.446 89.436C112.347 87.4071 102.272 68.0548 91.0355 46.5174L70.6398 7.39653H55.9231H41.2675L22.032 48.0781ZM64.7165 45.1128C68.8078 53.3844 72.1054 60.5115 72.1054 60.8236C72.1054 61.3439 68.6246 61.4999 56.8391 61.4999C48.4732 61.4999 41.5728 61.3959 41.5728 61.2918C41.5728 61.1358 53.7248 33.6159 55.6178 29.5061C56.2895 28.0495 56.4116 28.0495 56.8391 28.9859C57.1444 29.5581 60.6862 36.7892 64.7165 45.1128Z" fill="white"/>
<path d="M127.064 50.3151V93.2336H139.583H152.101L152.223 66.4941L152.406 39.7545L166.024 53.2283C177.993 65.0895 179.825 66.7022 181.351 66.7022C182.939 66.7022 184.832 65.0375 196.801 53.1763L210.418 39.7025L210.602 66.4421L210.724 93.2336H223.242H235.76V50.3151V7.39653L224.647 7.44855H213.472L204.007 16.8646C198.816 22.0149 191.549 29.1419 187.946 32.6795L181.351 39.1303L165.352 23.4195L149.292 7.65665L138.178 7.50058L127.064 7.39653V50.3151Z" fill="white"/>
<path d="M254.69 50.2631V93.2336H278.994C292.368 93.2336 305.619 92.9735 308.428 92.7134C324.06 91.0487 337.556 85.4823 344.761 77.783C348.425 73.8813 352.089 67.4825 353.677 62.2803C355.57 56.2977 355.57 44.8007 353.677 38.8701C348.792 23.3154 336.396 13.2751 316.672 8.85316C312.092 7.81271 309.954 7.70866 283.269 7.5526L254.69 7.34451V50.2631ZM305.008 23.7836C320.274 26.0726 329.19 35.7488 329.19 49.8989C329.19 58.5867 326.686 64.6733 321.007 69.7195C314.351 75.65 308.916 77.1067 292.429 77.4708L280.338 77.7309V50.3671V23.0033H290.291C296.032 23.0553 302.199 23.3674 305.008 23.7836Z" fill="white"/>
<path d="M388.912 47.2978L372.546 61.2398V80.6442V99.9966H395.324H418.04L434.527 85.9505L451.015 71.9044H428.299H405.522L405.399 52.6561L405.216 33.4078L388.912 47.2978Z" fill="white"/>
</g>
<defs>
<filter id="filter0_d_874_11389" x="0.65918" y="0.633789" width="499.921" height="112.763" filterUnits="userSpaceOnUse" color-interpolation-filters="sRGB">
<feFlood flood-opacity="0" result="BackgroundImageFix"/>
<feColorMatrix in="SourceAlpha" type="matrix" values="0 0 0 0 0 0 0 0 0 0 0 0 0 0 0 0 0 0 127 0" result="hardAlpha"/>
<feOffset dx="7" dy="9"/>
<feGaussianBlur stdDeviation="2.2"/>
<feComposite in2="hardAlpha" operator="out"/>
<feColorMatrix type="matrix" values="0 0 0 0 0 0 0 0 0 0 0 0 0 0 0 0 0 0 0.25 0"/>
<feBlend mode="normal" in2="BackgroundImageFix" result="effect1_dropShadow_874_11389"/>
<feBlend mode="normal" in="SourceGraphic" in2="effect1_dropShadow_874_11389" result="shape"/>
</filter>
</defs>
</svg>
