<svg width="520" height="296" viewBox="0 0 520 296" fill="none" xmlns="http://www.w3.org/2000/svg">
<g filter="url(#filter0_d_881_8837)">
<path d="M324.34 0.61576C324.28 0.667018 321.031 0.769532 317.151 0.872046C313.271 0.948932 309.211 1.07707 308.128 1.15396C307.045 1.23085 303.466 1.4615 300.157 1.69216C280.607 2.94796 257.898 5.89524 238.347 9.63701C193.501 18.2482 152.715 31.7032 116.171 49.9251L111.719 52.1291V56.3066V60.484L116.562 58.4081C170.01 35.6244 235.039 20.401 295.495 16.5567C306.624 15.8391 313.241 15.6341 325.724 15.6341C338.838 15.6341 344.883 15.8391 356.253 16.6849C392.376 19.3246 423.477 27.3207 445.584 39.648C465.917 51.0271 479.031 66.0967 484.204 84.0623C485.919 90.085 486.31 92.9298 486.31 99.8239C486.34 103.95 486.189 107.051 485.949 108.538C483.091 124.735 475.121 138.625 461.164 151.722C455.329 157.206 446.035 163.767 438.546 167.714L435.658 169.252V181.118C435.658 187.653 435.749 192.984 435.839 192.984C436.32 192.984 442.967 190.523 446.186 189.139C466.248 180.579 484.234 166.407 496.055 149.876C506.973 134.627 512.387 118.584 512.447 101.49C512.507 82.2171 506.251 65.251 493.799 50.9759C465.736 18.7351 407.024 0.590132 330.656 0.513246C327.258 0.513246 324.4 0.564503 324.34 0.61576Z" fill="#18B8FF"/>
<path d="M390.844 117.943C390.844 150.184 390.964 169.072 391.175 171.02C391.566 174.941 392.348 177.453 393.972 180.298C395.626 183.117 397.461 185.116 399.927 186.807C402.153 188.319 406.364 190.165 409.342 190.908C411.146 191.343 416.23 192.215 417.042 192.215C417.192 192.215 417.312 165.074 417.312 130.066V67.9164H404.078H390.844V117.943Z" fill="#18B8FF"/>
<path d="M442.246 68.5056C440.02 69.3 438.576 70.2739 437.463 71.7091C433.884 76.2966 435.869 82.4988 441.644 84.8822C442.637 85.2923 443.75 85.4717 445.584 85.5485C448.773 85.6767 450.878 85.0616 453.014 83.4214C458.698 79.0902 457.375 71.5041 450.457 68.6593C448.291 67.788 444.471 67.7111 442.246 68.5056ZM449.735 69.9408C453.916 71.7604 455.871 75.6303 454.427 79.2696C453.405 81.8324 450.096 83.9852 446.817 84.2415C441.103 84.6772 436.32 80.1409 437.433 75.3996C437.824 73.7338 439.238 71.7604 440.682 70.8121C443.208 69.1719 447.088 68.7875 449.735 69.9408Z" fill="#18B8FF"/>
<path d="M443.268 71.1711L441.674 71.2736V76.3993C441.674 79.1928 441.674 81.5763 441.674 81.6788C441.674 81.8069 442.216 81.9095 442.877 81.9607L444.081 82.0376V79.9617V77.8858L444.923 77.9627C445.584 78.0139 445.975 78.3983 447.088 80.0129C448.442 81.9863 448.442 81.9863 449.735 82.012C450.487 82.012 450.998 81.8838 450.998 81.7301C450.998 81.5763 450.397 80.5768 449.645 79.5516L448.322 77.6551L449.073 77.2451C451.269 76.0149 451.209 72.6319 448.953 71.658C447.991 71.248 445.494 71.043 443.268 71.1711ZM447.78 73.5033C448.412 73.9902 448.442 74.8103 447.81 75.5536C447.449 76.0149 447.058 76.1174 445.705 76.1174H444.081V74.6309C444.081 73.8108 444.141 73.0676 444.201 73.0163C444.502 72.7601 447.299 73.1189 447.78 73.5033Z" fill="#18B8FF"/>
<path d="M74.7236 81.6276V92.2634H87.8075H100.891V81.6276V70.9917H87.8075H74.7236V81.6276Z" fill="#18B8FF"/>
<path d="M229.896 80.5768C229.836 80.6281 229.836 101.49 229.926 126.913L230.106 173.122L230.768 175.172C231.791 178.196 234.408 182.553 236.483 184.68C239.461 187.704 243.852 190.19 248.604 191.548C252.785 192.753 255.673 192.984 266.11 192.984H275.644V183.783V174.582L268.967 174.48C262.711 174.403 262.17 174.352 260.756 173.813C257.898 172.686 256.635 171.148 256.094 168.201C255.883 167.073 255.823 158.821 255.853 144.546L255.943 122.633L265.809 122.556L275.644 122.505V113.535V104.565L265.809 104.514L255.943 104.437L255.853 92.4428L255.793 80.4743H242.92C235.821 80.4743 229.956 80.5256 229.896 80.5768Z" fill="#18B8FF"/>
<path d="M52.616 85.6512C26.9596 105.488 9.99563 128.143 3.46873 151.209C0.942181 160.102 0.0398435 166.714 0.00976562 176.069C0.00976562 184.834 0.761714 191.036 2.86717 199.519C8.88275 223.892 25.3354 243.6 52.3153 258.644C71.1741 269.177 93.6724 276.789 120.953 281.889C137.556 284.99 157.347 287.194 175.033 287.937C177.018 288.014 179.996 288.142 181.65 288.219C185.681 288.45 210.916 288.424 216.39 288.219C224.962 287.912 227.459 287.784 233.835 287.399C270.561 285.221 307.587 279.634 344.703 270.664C372.194 264 395.745 256.363 417.16 247.214L425.582 243.6L425.672 227.095C425.733 213.948 425.672 210.642 425.372 210.744C425.161 210.795 423.296 211.692 421.221 212.692C416.078 215.229 401.49 221.406 394.752 223.917C363.321 235.681 324.611 245.804 288.277 251.775C265.508 255.517 243.942 257.696 218.045 258.9C206.946 259.413 174.702 259.336 164.807 258.772C123.69 256.44 91.7173 249.623 67.9558 238.141C63.9554 236.193 56.4359 231.862 52.9168 229.479C48.6758 226.583 41.7579 220.714 38.8404 217.561C28.8846 206.797 22.9291 194.47 20.6733 180.016C20.0417 175.889 19.9514 164.51 20.5229 160.307C23.0795 141.803 30.8697 124.171 43.7731 107.871C46.9012 103.924 51.8641 98.4143 54.3305 96.2102L55.7742 94.9031L55.7141 89.1111L55.6238 83.319L52.616 85.6512Z" fill="#18B8FF"/>
<path d="M326.536 103.335C320.25 103.719 314.204 105.129 308.58 107.512C293.721 113.817 284.698 126.247 282.833 143.008C282.111 149.492 282.953 159 284.758 165.048C290.503 184.065 307.347 194.521 332.251 194.521C344.944 194.521 355.261 191.984 363.833 186.756C367.171 184.706 372.255 180.938 372.134 180.554C372.074 180.4 368.525 177.376 364.224 173.839L356.404 167.432L354.148 169.098C349.606 172.455 345.545 174.275 340.372 175.249C338.658 175.556 336.642 175.684 332.642 175.684C327.89 175.684 326.927 175.607 324.852 175.095C317.182 173.224 311.768 168.611 309.632 162.229C309.302 161.179 308.911 159.308 308.82 158.052L308.64 155.822H342.117H375.593L375.413 148.569C375.232 140.753 374.902 138.036 373.398 132.885C369.638 119.993 360.975 110.588 348.704 106.052C342.327 103.719 335.018 102.822 326.536 103.335ZM335.349 122.069C338.778 122.864 341.906 124.581 344.011 126.811C346.658 129.604 348.704 134.294 349.185 138.702L349.395 140.701H329.063H308.73V139.599C308.73 135.524 310.986 130.296 313.964 127.477C318.205 123.428 324.25 121.326 330.988 121.608C332.552 121.685 334.537 121.89 335.349 122.069Z" fill="#18B8FF"/>
<path d="M74.7838 139.984L74.874 175.428L75.6861 177.914C78.4834 186.551 85.3411 191.625 96.7708 193.522C98.395 193.778 100.049 194.009 100.44 194.009H101.192L101.132 149.338L101.042 104.693L87.8677 104.616L74.7236 104.565L74.7838 139.984Z" fill="#18B8FF"/>
<path d="M124.653 148.877V193.24L137.677 193.188L150.671 193.112L150.821 157.872L150.972 122.633H163.303C174.613 122.633 175.786 122.684 177.29 123.12C180.297 123.991 182.253 125.58 183.155 127.887C183.546 128.938 183.636 132.987 183.696 161.102L183.756 193.112L196.78 193.188L209.774 193.24V160.461C209.774 124.555 209.834 125.811 207.969 120.89C206.556 117.174 204.691 114.586 201.352 111.741C197.171 108.179 193.231 106.436 187.035 105.359C184.208 104.873 182.433 104.847 154.37 104.667L124.653 104.488V148.877Z" fill="#18B8FF"/>
</g>
<defs>
<filter id="filter0_d_881_8837" x="0.00976562" y="0.513184" width="519.438" height="294.87" filterUnits="userSpaceOnUse" color-interpolation-filters="sRGB">
<feFlood flood-opacity="0" result="BackgroundImageFix"/>
<feColorMatrix in="SourceAlpha" type="matrix" values="0 0 0 0 0 0 0 0 0 0 0 0 0 0 0 0 0 0 127 0" result="hardAlpha"/>
<feOffset dx="7" dy="7"/>
<feComposite in2="hardAlpha" operator="out"/>
<feColorMatrix type="matrix" values="0 0 0 0 1 0 0 0 0 1 0 0 0 0 1 0 0 0 1 0"/>
<feBlend mode="normal" in2="BackgroundImageFix" result="effect1_dropShadow_881_8837"/>
<feBlend mode="normal" in="SourceGraphic" in2="effect1_dropShadow_881_8837" result="shape"/>
</filter>
</defs>
</svg>
